<svg height="140.0" viewBox="-2125.0 -25.0 4250.0 140.0" width="4250.0" xmlns="http://www.w3.org/2000/svg">
	<style type="text/css">
		<![CDATA[
			circle.leaf {
				text-anchor: middle;
			}
			circle.left_node {
				text-anchor: end;
			}
		]]>
	</style>
	<g class="edges" stroke="black" stroke-width="1px">
		<line x1="-2000.0" x2="-2100.0" y1="60.0" y2="90.0" />
		<line x1="-2000.0" x2="-2060.0" y1="60.0" y2="90.0" />
		<line x1="-2000.0" x2="-2020.0" y1="60.0" y2="90.0" />
		<line x1="-2000.0" x2="-1900.0" y1="60.0" y2="90.0" />
		<line x1="-1600.0" x2="-2000.0" y1="30.0" y2="60.0" />
		<line x1="-1760.0" x2="-1860.0" y1="60.0" y2="90.0" />
		<line x1="-1760.0" x2="-1820.0" y1="60.0" y2="90.0" />
		<line x1="-1760.0" x2="-1780.0" y1="60.0" y2="90.0" />
		<line x1="-1760.0" x2="-1660.0" y1="60.0" y2="90.0" />
		<line x1="-1600.0" x2="-1760.0" y1="30.0" y2="60.0" />
		<line x1="-1520.0" x2="-1620.0" y1="60.0" y2="90.0" />
		<line x1="-1520.0" x2="-1580.0" y1="60.0" y2="90.0" />
		<line x1="-1520.0" x2="-1540.0" y1="60.0" y2="90.0" />
		<line x1="-1520.0" x2="-1420.0" y1="60.0" y2="90.0" />
		<line x1="-1600.0" x2="-1520.0" y1="30.0" y2="60.0" />
		<line x1="-1200.0" x2="-1300.0" y1="60.0" y2="90.0" />
		<line x1="-1200.0" x2="-1260.0" y1="60.0" y2="90.0" />
		<line x1="-1200.0" x2="-1220.0" y1="60.0" y2="90.0" />
		<line x1="-1200.0" x2="-1100.0" y1="60.0" y2="90.0" />
		<line x1="-1600.0" x2="-1200.0" y1="30.0" y2="60.0" />
		<line x1="0.0" x2="-1600.0" y1="0.0" y2="30.0" />
		<line x1="-960.0" x2="-1060.0" y1="60.0" y2="90.0" />
		<line x1="-960.0" x2="-1020.0" y1="60.0" y2="90.0" />
		<line x1="-960.0" x2="-980.0" y1="60.0" y2="90.0" />
		<line x1="-960.0" x2="-860.0" y1="60.0" y2="90.0" />
		<line x1="-560.0" x2="-960.0" y1="30.0" y2="60.0" />
		<line x1="-720.0" x2="-820.0" y1="60.0" y2="90.0" />
		<line x1="-720.0" x2="-780.0" y1="60.0" y2="90.0" />
		<line x1="-720.0" x2="-740.0" y1="60.0" y2="90.0" />
		<line x1="-720.0" x2="-620.0" y1="60.0" y2="90.0" />
		<line x1="-560.0" x2="-720.0" y1="30.0" y2="60.0" />
		<line x1="-480.0" x2="-580.0" y1="60.0" y2="90.0" />
		<line x1="-480.0" x2="-540.0" y1="60.0" y2="90.0" />
		<line x1="-480.0" x2="-500.0" y1="60.0" y2="90.0" />
		<line x1="-480.0" x2="-380.0" y1="60.0" y2="90.0" />
		<line x1="-560.0" x2="-480.0" y1="30.0" y2="60.0" />
		<line x1="-160.0" x2="-260.0" y1="60.0" y2="90.0" />
		<line x1="-160.0" x2="-220.0" y1="60.0" y2="90.0" />
		<line x1="-160.0" x2="-180.0" y1="60.0" y2="90.0" />
		<line x1="-160.0" x2="-60.0" y1="60.0" y2="90.0" />
		<line x1="-560.0" x2="-160.0" y1="30.0" y2="60.0" />
		<line x1="0.0" x2="-560.0" y1="0.0" y2="30.0" />
		<line x1="80.0" x2="-20.0" y1="60.0" y2="90.0" />
		<line x1="80.0" x2="20.0" y1="60.0" y2="90.0" />
		<line x1="80.0" x2="60.0" y1="60.0" y2="90.0" />
		<line x1="80.0" x2="180.0" y1="60.0" y2="90.0" />
		<line x1="480.0" x2="80.0" y1="30.0" y2="60.0" />
		<line x1="320.0" x2="220.0" y1="60.0" y2="90.0" />
		<line x1="320.0" x2="260.0" y1="60.0" y2="90.0" />
		<line x1="320.0" x2="300.0" y1="60.0" y2="90.0" />
		<line x1="320.0" x2="420.0" y1="60.0" y2="90.0" />
		<line x1="480.0" x2="320.0" y1="30.0" y2="60.0" />
		<line x1="560.0" x2="460.0" y1="60.0" y2="90.0" />
		<line x1="560.0" x2="500.0" y1="60.0" y2="90.0" />
		<line x1="560.0" x2="540.0" y1="60.0" y2="90.0" />
		<line x1="560.0" x2="660.0" y1="60.0" y2="90.0" />
		<line x1="480.0" x2="560.0" y1="30.0" y2="60.0" />
		<line x1="880.0" x2="780.0" y1="60.0" y2="90.0" />
		<line x1="880.0" x2="820.0" y1="60.0" y2="90.0" />
		<line x1="880.0" x2="860.0" y1="60.0" y2="90.0" />
		<line x1="880.0" x2="980.0" y1="60.0" y2="90.0" />
		<line x1="480.0" x2="880.0" y1="30.0" y2="60.0" />
		<line x1="0.0" x2="480.0" y1="0.0" y2="30.0" />
		<line x1="1200.0" x2="1100.0" y1="60.0" y2="90.0" />
		<line x1="1200.0" x2="1140.0" y1="60.0" y2="90.0" />
		<line x1="1200.0" x2="1180.0" y1="60.0" y2="90.0" />
		<line x1="1200.0" x2="1300.0" y1="60.0" y2="90.0" />
		<line x1="1600.0" x2="1200.0" y1="30.0" y2="60.0" />
		<line x1="1440.0" x2="1340.0" y1="60.0" y2="90.0" />
		<line x1="1440.0" x2="1380.0" y1="60.0" y2="90.0" />
		<line x1="1440.0" x2="1420.0" y1="60.0" y2="90.0" />
		<line x1="1440.0" x2="1540.0" y1="60.0" y2="90.0" />
		<line x1="1600.0" x2="1440.0" y1="30.0" y2="60.0" />
		<line x1="1680.0" x2="1580.0" y1="60.0" y2="90.0" />
		<line x1="1680.0" x2="1620.0" y1="60.0" y2="90.0" />
		<line x1="1680.0" x2="1660.0" y1="60.0" y2="90.0" />
		<line x1="1680.0" x2="1780.0" y1="60.0" y2="90.0" />
		<line x1="1600.0" x2="1680.0" y1="30.0" y2="60.0" />
		<line x1="2000.0" x2="1900.0" y1="60.0" y2="90.0" />
		<line x1="2000.0" x2="1940.0" y1="60.0" y2="90.0" />
		<line x1="2000.0" x2="1980.0" y1="60.0" y2="90.0" />
		<line x1="2000.0" x2="2100.0" y1="60.0" y2="90.0" />
		<line x1="1600.0" x2="2000.0" y1="30.0" y2="60.0" />
		<line x1="0.0" x2="1600.0" y1="0.0" y2="30.0" />
	</g>
	<g class="vertices">
		<circle cx="0.0" cy="0.0" r="5.0" />
		<circle cx="-1600.0" cy="30.0" r="5.0" />
		<circle cx="-2000.0" cy="60.0" r="5.0" />
		<circle cx="-2100.0" cy="90.0" r="5.0" />
		<circle cx="-2060.0" cy="90.0" r="5.0" />
		<circle cx="-2020.0" cy="90.0" r="5.0" />
		<circle cx="-1900.0" cy="90.0" r="5.0" />
		<circle cx="-1760.0" cy="60.0" r="5.0" />
		<circle cx="-1860.0" cy="90.0" r="5.0" />
		<circle cx="-1820.0" cy="90.0" r="5.0" />
		<circle cx="-1780.0" cy="90.0" r="5.0" />
		<circle cx="-1660.0" cy="90.0" r="5.0" />
		<circle cx="-1520.0" cy="60.0" r="5.0" />
		<circle cx="-1620.0" cy="90.0" r="5.0" />
		<circle cx="-1580.0" cy="90.0" r="5.0" />
		<circle cx="-1540.0" cy="90.0" r="5.0" />
		<circle cx="-1420.0" cy="90.0" r="5.0" />
		<circle cx="-1200.0" cy="60.0" r="5.0" />
		<circle cx="-1300.0" cy="90.0" r="5.0" />
		<circle cx="-1260.0" cy="90.0" r="5.0" />
		<circle cx="-1220.0" cy="90.0" r="5.0" />
		<circle cx="-1100.0" cy="90.0" r="5.0" />
		<circle cx="-560.0" cy="30.0" r="5.0" />
		<circle cx="-960.0" cy="60.0" r="5.0" />
		<circle cx="-1060.0" cy="90.0" r="5.0" />
		<circle cx="-1020.0" cy="90.0" r="5.0" />
		<circle cx="-980.0" cy="90.0" r="5.0" />
		<circle cx="-860.0" cy="90.0" r="5.0" />
		<circle cx="-720.0" cy="60.0" r="5.0" />
		<circle cx="-820.0" cy="90.0" r="5.0" />
		<circle cx="-780.0" cy="90.0" r="5.0" />
		<circle cx="-740.0" cy="90.0" r="5.0" />
		<circle cx="-620.0" cy="90.0" r="5.0" />
		<circle cx="-480.0" cy="60.0" r="5.0" />
		<circle cx="-580.0" cy="90.0" r="5.0" />
		<circle cx="-540.0" cy="90.0" r="5.0" />
		<circle cx="-500.0" cy="90.0" r="5.0" />
		<circle cx="-380.0" cy="90.0" r="5.0" />
		<circle cx="-160.0" cy="60.0" r="5.0" />
		<circle cx="-260.0" cy="90.0" r="5.0" />
		<circle cx="-220.0" cy="90.0" r="5.0" />
		<circle cx="-180.0" cy="90.0" r="5.0" />
		<circle cx="-60.0" cy="90.0" r="5.0" />
		<circle cx="480.0" cy="30.0" r="5.0" />
		<circle cx="80.0" cy="60.0" r="5.0" />
		<circle cx="-20.0" cy="90.0" r="5.0" />
		<circle cx="20.0" cy="90.0" r="5.0" />
		<circle cx="60.0" cy="90.0" r="5.0" />
		<circle cx="180.0" cy="90.0" r="5.0" />
		<circle cx="320.0" cy="60.0" r="5.0" />
		<circle cx="220.0" cy="90.0" r="5.0" />
		<circle cx="260.0" cy="90.0" r="5.0" />
		<circle cx="300.0" cy="90.0" r="5.0" />
		<circle cx="420.0" cy="90.0" r="5.0" />
		<circle cx="560.0" cy="60.0" r="5.0" />
		<circle cx="460.0" cy="90.0" r="5.0" />
		<circle cx="500.0" cy="90.0" r="5.0" />
		<circle cx="540.0" cy="90.0" r="5.0" />
		<circle cx="660.0" cy="90.0" r="5.0" />
		<circle cx="880.0" cy="60.0" r="5.0" />
		<circle cx="780.0" cy="90.0" r="5.0" />
		<circle cx="820.0" cy="90.0" r="5.0" />
		<circle cx="860.0" cy="90.0" r="5.0" />
		<circle cx="980.0" cy="90.0" r="5.0" />
		<circle cx="1600.0" cy="30.0" r="5.0" />
		<circle cx="1200.0" cy="60.0" r="5.0" />
		<circle cx="1100.0" cy="90.0" r="5.0" />
		<circle cx="1140.0" cy="90.0" r="5.0" />
		<circle cx="1180.0" cy="90.0" r="5.0" />
		<circle cx="1300.0" cy="90.0" r="5.0" />
		<circle cx="1440.0" cy="60.0" r="5.0" />
		<circle cx="1340.0" cy="90.0" r="5.0" />
		<circle cx="1380.0" cy="90.0" r="5.0" />
		<circle cx="1420.0" cy="90.0" r="5.0" />
		<circle cx="1540.0" cy="90.0" r="5.0" />
		<circle cx="1680.0" cy="60.0" r="5.0" />
		<circle cx="1580.0" cy="90.0" r="5.0" />
		<circle cx="1620.0" cy="90.0" r="5.0" />
		<circle cx="1660.0" cy="90.0" r="5.0" />
		<circle cx="1780.0" cy="90.0" r="5.0" />
		<circle cx="2000.0" cy="60.0" r="5.0" />
		<circle cx="1900.0" cy="90.0" r="5.0" />
		<circle cx="1940.0" cy="90.0" r="5.0" />
		<circle cx="1980.0" cy="90.0" r="5.0" />
		<circle cx="2100.0" cy="90.0" r="5.0" />
	</g>
</svg>