<svg height="140.0" viewBox="-7775.0 -25.0 15550.0 140.0" width="15550.0" xmlns="http://www.w3.org/2000/svg">
	<style type="text/css">
		<![CDATA[
			circle.leaf {
				text-anchor: middle;
			}
			circle.left_node {
				text-anchor: end;
			}
		]]>
	</style>
	<g class="edges" stroke="black" stroke-width="1px">
		<line x1="-7500.0" x2="-7750.0" y1="60.0" y2="90.0" />
		<line x1="-7500.0" x2="-7700.0" y1="60.0" y2="90.0" />
		<line x1="-7500.0" x2="-7650.0" y1="60.0" y2="90.0" />
		<line x1="-7500.0" x2="-7500.0" y1="60.0" y2="90.0" />
		<line x1="-7500.0" x2="-7250.0" y1="60.0" y2="90.0" />
		<line x1="-6250.0" x2="-7500.0" y1="30.0" y2="60.0" />
		<line x1="-6950.0" x2="-7200.0" y1="60.0" y2="90.0" />
		<line x1="-6950.0" x2="-7150.0" y1="60.0" y2="90.0" />
		<line x1="-6950.0" x2="-7100.0" y1="60.0" y2="90.0" />
		<line x1="-6950.0" x2="-6950.0" y1="60.0" y2="90.0" />
		<line x1="-6950.0" x2="-6700.0" y1="60.0" y2="90.0" />
		<line x1="-6250.0" x2="-6950.0" y1="30.0" y2="60.0" />
		<line x1="-6400.0" x2="-6650.0" y1="60.0" y2="90.0" />
		<line x1="-6400.0" x2="-6600.0" y1="60.0" y2="90.0" />
		<line x1="-6400.0" x2="-6550.0" y1="60.0" y2="90.0" />
		<line x1="-6400.0" x2="-6400.0" y1="60.0" y2="90.0" />
		<line x1="-6400.0" x2="-6150.0" y1="60.0" y2="90.0" />
		<line x1="-6250.0" x2="-6400.0" y1="30.0" y2="60.0" />
		<line x1="-5750.0" x2="-6000.0" y1="60.0" y2="90.0" />
		<line x1="-5750.0" x2="-5950.0" y1="60.0" y2="90.0" />
		<line x1="-5750.0" x2="-5900.0" y1="60.0" y2="90.0" />
		<line x1="-5750.0" x2="-5750.0" y1="60.0" y2="90.0" />
		<line x1="-5750.0" x2="-5500.0" y1="60.0" y2="90.0" />
		<line x1="-6250.0" x2="-5750.0" y1="30.0" y2="60.0" />
		<line x1="-5000.0" x2="-5250.0" y1="60.0" y2="90.0" />
		<line x1="-5000.0" x2="-5200.0" y1="60.0" y2="90.0" />
		<line x1="-5000.0" x2="-5150.0" y1="60.0" y2="90.0" />
		<line x1="-5000.0" x2="-5000.0" y1="60.0" y2="90.0" />
		<line x1="-5000.0" x2="-4750.0" y1="60.0" y2="90.0" />
		<line x1="-6250.0" x2="-5000.0" y1="30.0" y2="60.0" />
		<line x1="0.0" x2="-6250.0" y1="0.0" y2="30.0" />
		<line x1="-4450.0" x2="-4700.0" y1="60.0" y2="90.0" />
		<line x1="-4450.0" x2="-4650.0" y1="60.0" y2="90.0" />
		<line x1="-4450.0" x2="-4600.0" y1="60.0" y2="90.0" />
		<line x1="-4450.0" x2="-4450.0" y1="60.0" y2="90.0" />
		<line x1="-4450.0" x2="-4200.0" y1="60.0" y2="90.0" />
		<line x1="-3200.0" x2="-4450.0" y1="30.0" y2="60.0" />
		<line x1="-3900.0" x2="-4150.0" y1="60.0" y2="90.0" />
		<line x1="-3900.0" x2="-4100.0" y1="60.0" y2="90.0" />
		<line x1="-3900.0" x2="-4050.0" y1="60.0" y2="90.0" />
		<line x1="-3900.0" x2="-3900.0" y1="60.0" y2="90.0" />
		<line x1="-3900.0" x2="-3650.0" y1="60.0" y2="90.0" />
		<line x1="-3200.0" x2="-3900.0" y1="30.0" y2="60.0" />
		<line x1="-3350.0" x2="-3600.0" y1="60.0" y2="90.0" />
		<line x1="-3350.0" x2="-3550.0" y1="60.0" y2="90.0" />
		<line x1="-3350.0" x2="-3500.0" y1="60.0" y2="90.0" />
		<line x1="-3350.0" x2="-3350.0" y1="60.0" y2="90.0" />
		<line x1="-3350.0" x2="-3100.0" y1="60.0" y2="90.0" />
		<line x1="-3200.0" x2="-3350.0" y1="30.0" y2="60.0" />
		<line x1="-2700.0" x2="-2950.0" y1="60.0" y2="90.0" />
		<line x1="-2700.0" x2="-2900.0" y1="60.0" y2="90.0" />
		<line x1="-2700.0" x2="-2850.0" y1="60.0" y2="90.0" />
		<line x1="-2700.0" x2="-2700.0" y1="60.0" y2="90.0" />
		<line x1="-2700.0" x2="-2450.0" y1="60.0" y2="90.0" />
		<line x1="-3200.0" x2="-2700.0" y1="30.0" y2="60.0" />
		<line x1="-1950.0" x2="-2200.0" y1="60.0" y2="90.0" />
		<line x1="-1950.0" x2="-2150.0" y1="60.0" y2="90.0" />
		<line x1="-1950.0" x2="-2100.0" y1="60.0" y2="90.0" />
		<line x1="-1950.0" x2="-1950.0" y1="60.0" y2="90.0" />
		<line x1="-1950.0" x2="-1700.0" y1="60.0" y2="90.0" />
		<line x1="-3200.0" x2="-1950.0" y1="30.0" y2="60.0" />
		<line x1="0.0" x2="-3200.0" y1="0.0" y2="30.0" />
		<line x1="-1400.0" x2="-1650.0" y1="60.0" y2="90.0" />
		<line x1="-1400.0" x2="-1600.0" y1="60.0" y2="90.0" />
		<line x1="-1400.0" x2="-1550.0" y1="60.0" y2="90.0" />
		<line x1="-1400.0" x2="-1400.0" y1="60.0" y2="90.0" />
		<line x1="-1400.0" x2="-1150.0" y1="60.0" y2="90.0" />
		<line x1="-150.0" x2="-1400.0" y1="30.0" y2="60.0" />
		<line x1="-850.0" x2="-1100.0" y1="60.0" y2="90.0" />
		<line x1="-850.0" x2="-1050.0" y1="60.0" y2="90.0" />
		<line x1="-850.0" x2="-1000.0" y1="60.0" y2="90.0" />
		<line x1="-850.0" x2="-850.0" y1="60.0" y2="90.0" />
		<line x1="-850.0" x2="-600.0" y1="60.0" y2="90.0" />
		<line x1="-150.0" x2="-850.0" y1="30.0" y2="60.0" />
		<line x1="-300.0" x2="-550.0" y1="60.0" y2="90.0" />
		<line x1="-300.0" x2="-500.0" y1="60.0" y2="90.0" />
		<line x1="-300.0" x2="-450.0" y1="60.0" y2="90.0" />
		<line x1="-300.0" x2="-300.0" y1="60.0" y2="90.0" />
		<line x1="-300.0" x2="-50.0" y1="60.0" y2="90.0" />
		<line x1="-150.0" x2="-300.0" y1="30.0" y2="60.0" />
		<line x1="350.0" x2="100.0" y1="60.0" y2="90.0" />
		<line x1="350.0" x2="150.0" y1="60.0" y2="90.0" />
		<line x1="350.0" x2="200.0" y1="60.0" y2="90.0" />
		<line x1="350.0" x2="350.0" y1="60.0" y2="90.0" />
		<line x1="350.0" x2="600.0" y1="60.0" y2="90.0" />
		<line x1="-150.0" x2="350.0" y1="30.0" y2="60.0" />
		<line x1="1100.0" x2="850.0" y1="60.0" y2="90.0" />
		<line x1="1100.0" x2="900.0" y1="60.0" y2="90.0" />
		<line x1="1100.0" x2="950.0" y1="60.0" y2="90.0" />
		<line x1="1100.0" x2="1100.0" y1="60.0" y2="90.0" />
		<line x1="1100.0" x2="1350.0" y1="60.0" y2="90.0" />
		<line x1="-150.0" x2="1100.0" y1="30.0" y2="60.0" />
		<line x1="0.0" x2="-150.0" y1="0.0" y2="30.0" />
		<line x1="1750.0" x2="1500.0" y1="60.0" y2="90.0" />
		<line x1="1750.0" x2="1550.0" y1="60.0" y2="90.0" />
		<line x1="1750.0" x2="1600.0" y1="60.0" y2="90.0" />
		<line x1="1750.0" x2="1750.0" y1="60.0" y2="90.0" />
		<line x1="1750.0" x2="2000.0" y1="60.0" y2="90.0" />
		<line x1="3000.0" x2="1750.0" y1="30.0" y2="60.0" />
		<line x1="2300.0" x2="2050.0" y1="60.0" y2="90.0" />
		<line x1="2300.0" x2="2100.0" y1="60.0" y2="90.0" />
		<line x1="2300.0" x2="2150.0" y1="60.0" y2="90.0" />
		<line x1="2300.0" x2="2300.0" y1="60.0" y2="90.0" />
		<line x1="2300.0" x2="2550.0" y1="60.0" y2="90.0" />
		<line x1="3000.0" x2="2300.0" y1="30.0" y2="60.0" />
		<line x1="2850.0" x2="2600.0" y1="60.0" y2="90.0" />
		<line x1="2850.0" x2="2650.0" y1="60.0" y2="90.0" />
		<line x1="2850.0" x2="2700.0" y1="60.0" y2="90.0" />
		<line x1="2850.0" x2="2850.0" y1="60.0" y2="90.0" />
		<line x1="2850.0" x2="3100.0" y1="60.0" y2="90.0" />
		<line x1="3000.0" x2="2850.0" y1="30.0" y2="60.0" />
		<line x1="3500.0" x2="3250.0" y1="60.0" y2="90.0" />
		<line x1="3500.0" x2="3300.0" y1="60.0" y2="90.0" />
		<line x1="3500.0" x2="3350.0" y1="60.0" y2="90.0" />
		<line x1="3500.0" x2="3500.0" y1="60.0" y2="90.0" />
		<line x1="3500.0" x2="3750.0" y1="60.0" y2="90.0" />
		<line x1="3000.0" x2="3500.0" y1="30.0" y2="60.0" />
		<line x1="4250.0" x2="4000.0" y1="60.0" y2="90.0" />
		<line x1="4250.0" x2="4050.0" y1="60.0" y2="90.0" />
		<line x1="4250.0" x2="4100.0" y1="60.0" y2="90.0" />
		<line x1="4250.0" x2="4250.0" y1="60.0" y2="90.0" />
		<line x1="4250.0" x2="4500.0" y1="60.0" y2="90.0" />
		<line x1="3000.0" x2="4250.0" y1="30.0" y2="60.0" />
		<line x1="0.0" x2="3000.0" y1="0.0" y2="30.0" />
		<line x1="5000.0" x2="4750.0" y1="60.0" y2="90.0" />
		<line x1="5000.0" x2="4800.0" y1="60.0" y2="90.0" />
		<line x1="5000.0" x2="4850.0" y1="60.0" y2="90.0" />
		<line x1="5000.0" x2="5000.0" y1="60.0" y2="90.0" />
		<line x1="5000.0" x2="5250.0" y1="60.0" y2="90.0" />
		<line x1="6250.0" x2="5000.0" y1="30.0" y2="60.0" />
		<line x1="5550.0" x2="5300.0" y1="60.0" y2="90.0" />
		<line x1="5550.0" x2="5350.0" y1="60.0" y2="90.0" />
		<line x1="5550.0" x2="5400.0" y1="60.0" y2="90.0" />
		<line x1="5550.0" x2="5550.0" y1="60.0" y2="90.0" />
		<line x1="5550.0" x2="5800.0" y1="60.0" y2="90.0" />
		<line x1="6250.0" x2="5550.0" y1="30.0" y2="60.0" />
		<line x1="6100.0" x2="5850.0" y1="60.0" y2="90.0" />
		<line x1="6100.0" x2="5900.0" y1="60.0" y2="90.0" />
		<line x1="6100.0" x2="5950.0" y1="60.0" y2="90.0" />
		<line x1="6100.0" x2="6100.0" y1="60.0" y2="90.0" />
		<line x1="6100.0" x2="6350.0" y1="60.0" y2="90.0" />
		<line x1="6250.0" x2="6100.0" y1="30.0" y2="60.0" />
		<line x1="6750.0" x2="6500.0" y1="60.0" y2="90.0" />
		<line x1="6750.0" x2="6550.0" y1="60.0" y2="90.0" />
		<line x1="6750.0" x2="6600.0" y1="60.0" y2="90.0" />
		<line x1="6750.0" x2="6750.0" y1="60.0" y2="90.0" />
		<line x1="6750.0" x2="7000.0" y1="60.0" y2="90.0" />
		<line x1="6250.0" x2="6750.0" y1="30.0" y2="60.0" />
		<line x1="7500.0" x2="7250.0" y1="60.0" y2="90.0" />
		<line x1="7500.0" x2="7300.0" y1="60.0" y2="90.0" />
		<line x1="7500.0" x2="7350.0" y1="60.0" y2="90.0" />
		<line x1="7500.0" x2="7500.0" y1="60.0" y2="90.0" />
		<line x1="7500.0" x2="7750.0" y1="60.0" y2="90.0" />
		<line x1="6250.0" x2="7500.0" y1="30.0" y2="60.0" />
		<line x1="0.0" x2="6250.0" y1="0.0" y2="30.0" />
	</g>
	<g class="vertices">
		<circle cx="0.0" cy="0.0" r="5.0" />
		<circle cx="-6250.0" cy="30.0" r="5.0" />
		<circle cx="-7500.0" cy="60.0" r="5.0" />
		<circle cx="-7750.0" cy="90.0" r="5.0" />
		<circle cx="-7700.0" cy="90.0" r="5.0" />
		<circle cx="-7650.0" cy="90.0" r="5.0" />
		<circle cx="-7500.0" cy="90.0" r="5.0" />
		<circle cx="-7250.0" cy="90.0" r="5.0" />
		<circle cx="-6950.0" cy="60.0" r="5.0" />
		<circle cx="-7200.0" cy="90.0" r="5.0" />
		<circle cx="-7150.0" cy="90.0" r="5.0" />
		<circle cx="-7100.0" cy="90.0" r="5.0" />
		<circle cx="-6950.0" cy="90.0" r="5.0" />
		<circle cx="-6700.0" cy="90.0" r="5.0" />
		<circle cx="-6400.0" cy="60.0" r="5.0" />
		<circle cx="-6650.0" cy="90.0" r="5.0" />
		<circle cx="-6600.0" cy="90.0" r="5.0" />
		<circle cx="-6550.0" cy="90.0" r="5.0" />
		<circle cx="-6400.0" cy="90.0" r="5.0" />
		<circle cx="-6150.0" cy="90.0" r="5.0" />
		<circle cx="-5750.0" cy="60.0" r="5.0" />
		<circle cx="-6000.0" cy="90.0" r="5.0" />
		<circle cx="-5950.0" cy="90.0" r="5.0" />
		<circle cx="-5900.0" cy="90.0" r="5.0" />
		<circle cx="-5750.0" cy="90.0" r="5.0" />
		<circle cx="-5500.0" cy="90.0" r="5.0" />
		<circle cx="-5000.0" cy="60.0" r="5.0" />
		<circle cx="-5250.0" cy="90.0" r="5.0" />
		<circle cx="-5200.0" cy="90.0" r="5.0" />
		<circle cx="-5150.0" cy="90.0" r="5.0" />
		<circle cx="-5000.0" cy="90.0" r="5.0" />
		<circle cx="-4750.0" cy="90.0" r="5.0" />
		<circle cx="-3200.0" cy="30.0" r="5.0" />
		<circle cx="-4450.0" cy="60.0" r="5.0" />
		<circle cx="-4700.0" cy="90.0" r="5.0" />
		<circle cx="-4650.0" cy="90.0" r="5.0" />
		<circle cx="-4600.0" cy="90.0" r="5.0" />
		<circle cx="-4450.0" cy="90.0" r="5.0" />
		<circle cx="-4200.0" cy="90.0" r="5.0" />
		<circle cx="-3900.0" cy="60.0" r="5.0" />
		<circle cx="-4150.0" cy="90.0" r="5.0" />
		<circle cx="-4100.0" cy="90.0" r="5.0" />
		<circle cx="-4050.0" cy="90.0" r="5.0" />
		<circle cx="-3900.0" cy="90.0" r="5.0" />
		<circle cx="-3650.0" cy="90.0" r="5.0" />
		<circle cx="-3350.0" cy="60.0" r="5.0" />
		<circle cx="-3600.0" cy="90.0" r="5.0" />
		<circle cx="-3550.0" cy="90.0" r="5.0" />
		<circle cx="-3500.0" cy="90.0" r="5.0" />
		<circle cx="-3350.0" cy="90.0" r="5.0" />
		<circle cx="-3100.0" cy="90.0" r="5.0" />
		<circle cx="-2700.0" cy="60.0" r="5.0" />
		<circle cx="-2950.0" cy="90.0" r="5.0" />
		<circle cx="-2900.0" cy="90.0" r="5.0" />
		<circle cx="-2850.0" cy="90.0" r="5.0" />
		<circle cx="-2700.0" cy="90.0" r="5.0" />
		<circle cx="-2450.0" cy="90.0" r="5.0" />
		<circle cx="-1950.0" cy="60.0" r="5.0" />
		<circle cx="-2200.0" cy="90.0" r="5.0" />
		<circle cx="-2150.0" cy="90.0" r="5.0" />
		<circle cx="-2100.0" cy="90.0" r="5.0" />
		<circle cx="-1950.0" cy="90.0" r="5.0" />
		<circle cx="-1700.0" cy="90.0" r="5.0" />
		<circle cx="-150.0" cy="30.0" r="5.0" />
		<circle cx="-1400.0" cy="60.0" r="5.0" />
		<circle cx="-1650.0" cy="90.0" r="5.0" />
		<circle cx="-1600.0" cy="90.0" r="5.0" />
		<circle cx="-1550.0" cy="90.0" r="5.0" />
		<circle cx="-1400.0" cy="90.0" r="5.0" />
		<circle cx="-1150.0" cy="90.0" r="5.0" />
		<circle cx="-850.0" cy="60.0" r="5.0" />
		<circle cx="-1100.0" cy="90.0" r="5.0" />
		<circle cx="-1050.0" cy="90.0" r="5.0" />
		<circle cx="-1000.0" cy="90.0" r="5.0" />
		<circle cx="-850.0" cy="90.0" r="5.0" />
		<circle cx="-600.0" cy="90.0" r="5.0" />
		<circle cx="-300.0" cy="60.0" r="5.0" />
		<circle cx="-550.0" cy="90.0" r="5.0" />
		<circle cx="-500.0" cy="90.0" r="5.0" />
		<circle cx="-450.0" cy="90.0" r="5.0" />
		<circle cx="-300.0" cy="90.0" r="5.0" />
		<circle cx="-50.0" cy="90.0" r="5.0" />
		<circle cx="350.0" cy="60.0" r="5.0" />
		<circle cx="100.0" cy="90.0" r="5.0" />
		<circle cx="150.0" cy="90.0" r="5.0" />
		<circle cx="200.0" cy="90.0" r="5.0" />
		<circle cx="350.0" cy="90.0" r="5.0" />
		<circle cx="600.0" cy="90.0" r="5.0" />
		<circle cx="1100.0" cy="60.0" r="5.0" />
		<circle cx="850.0" cy="90.0" r="5.0" />
		<circle cx="900.0" cy="90.0" r="5.0" />
		<circle cx="950.0" cy="90.0" r="5.0" />
		<circle cx="1100.0" cy="90.0" r="5.0" />
		<circle cx="1350.0" cy="90.0" r="5.0" />
		<circle cx="3000.0" cy="30.0" r="5.0" />
		<circle cx="1750.0" cy="60.0" r="5.0" />
		<circle cx="1500.0" cy="90.0" r="5.0" />
		<circle cx="1550.0" cy="90.0" r="5.0" />
		<circle cx="1600.0" cy="90.0" r="5.0" />
		<circle cx="1750.0" cy="90.0" r="5.0" />
		<circle cx="2000.0" cy="90.0" r="5.0" />
		<circle cx="2300.0" cy="60.0" r="5.0" />
		<circle cx="2050.0" cy="90.0" r="5.0" />
		<circle cx="2100.0" cy="90.0" r="5.0" />
		<circle cx="2150.0" cy="90.0" r="5.0" />
		<circle cx="2300.0" cy="90.0" r="5.0" />
		<circle cx="2550.0" cy="90.0" r="5.0" />
		<circle cx="2850.0" cy="60.0" r="5.0" />
		<circle cx="2600.0" cy="90.0" r="5.0" />
		<circle cx="2650.0" cy="90.0" r="5.0" />
		<circle cx="2700.0" cy="90.0" r="5.0" />
		<circle cx="2850.0" cy="90.0" r="5.0" />
		<circle cx="3100.0" cy="90.0" r="5.0" />
		<circle cx="3500.0" cy="60.0" r="5.0" />
		<circle cx="3250.0" cy="90.0" r="5.0" />
		<circle cx="3300.0" cy="90.0" r="5.0" />
		<circle cx="3350.0" cy="90.0" r="5.0" />
		<circle cx="3500.0" cy="90.0" r="5.0" />
		<circle cx="3750.0" cy="90.0" r="5.0" />
		<circle cx="4250.0" cy="60.0" r="5.0" />
		<circle cx="4000.0" cy="90.0" r="5.0" />
		<circle cx="4050.0" cy="90.0" r="5.0" />
		<circle cx="4100.0" cy="90.0" r="5.0" />
		<circle cx="4250.0" cy="90.0" r="5.0" />
		<circle cx="4500.0" cy="90.0" r="5.0" />
		<circle cx="6250.0" cy="30.0" r="5.0" />
		<circle cx="5000.0" cy="60.0" r="5.0" />
		<circle cx="4750.0" cy="90.0" r="5.0" />
		<circle cx="4800.0" cy="90.0" r="5.0" />
		<circle cx="4850.0" cy="90.0" r="5.0" />
		<circle cx="5000.0" cy="90.0" r="5.0" />
		<circle cx="5250.0" cy="90.0" r="5.0" />
		<circle cx="5550.0" cy="60.0" r="5.0" />
		<circle cx="5300.0" cy="90.0" r="5.0" />
		<circle cx="5350.0" cy="90.0" r="5.0" />
		<circle cx="5400.0" cy="90.0" r="5.0" />
		<circle cx="5550.0" cy="90.0" r="5.0" />
		<circle cx="5800.0" cy="90.0" r="5.0" />
		<circle cx="6100.0" cy="60.0" r="5.0" />
		<circle cx="5850.0" cy="90.0" r="5.0" />
		<circle cx="5900.0" cy="90.0" r="5.0" />
		<circle cx="5950.0" cy="90.0" r="5.0" />
		<circle cx="6100.0" cy="90.0" r="5.0" />
		<circle cx="6350.0" cy="90.0" r="5.0" />
		<circle cx="6750.0" cy="60.0" r="5.0" />
		<circle cx="6500.0" cy="90.0" r="5.0" />
		<circle cx="6550.0" cy="90.0" r="5.0" />
		<circle cx="6600.0" cy="90.0" r="5.0" />
		<circle cx="6750.0" cy="90.0" r="5.0" />
		<circle cx="7000.0" cy="90.0" r="5.0" />
		<circle cx="7500.0" cy="60.0" r="5.0" />
		<circle cx="7250.0" cy="90.0" r="5.0" />
		<circle cx="7300.0" cy="90.0" r="5.0" />
		<circle cx="7350.0" cy="90.0" r="5.0" />
		<circle cx="7500.0" cy="90.0" r="5.0" />
		<circle cx="7750.0" cy="90.0" r="5.0" />
	</g>
</svg>