<svg xmlns="http://www.w3.org/2000/svg" width="1600" height="200" viewBox="-800 -20 1600 200">
	<g stroke="black" stroke-width="1px">
	<line x1="-750.000000" x2="-775.000000" y1="100.000000" y2="125.000000" />
	<line x1="-750.000000" x2="-725.000000" y1="100.000000" y2="125.000000" />
	<line x1="-700.000000" x2="-750.000000" y1="75.000000" y2="100.000000" />
	<line x1="-650.000000" x2="-675.000000" y1="100.000000" y2="125.000000" />
	<line x1="-650.000000" x2="-625.000000" y1="100.000000" y2="125.000000" />
	<line x1="-700.000000" x2="-650.000000" y1="75.000000" y2="100.000000" />
	<line x1="-600.000000" x2="-700.000000" y1="50.000000" y2="75.000000" />
	<line x1="-550.000000" x2="-575.000000" y1="100.000000" y2="125.000000" />
	<line x1="-550.000000" x2="-525.000000" y1="100.000000" y2="125.000000" />
	<line x1="-500.000000" x2="-550.000000" y1="75.000000" y2="100.000000" />
	<line x1="-450.000000" x2="-475.000000" y1="100.000000" y2="125.000000" />
	<line x1="-450.000000" x2="-425.000000" y1="100.000000" y2="125.000000" />
	<line x1="-500.000000" x2="-450.000000" y1="75.000000" y2="100.000000" />
	<line x1="-600.000000" x2="-500.000000" y1="50.000000" y2="75.000000" />
	<line x1="-400.000000" x2="-600.000000" y1="25.000000" y2="50.000000" />
	<line x1="-350.000000" x2="-375.000000" y1="100.000000" y2="125.000000" />
	<line x1="-350.000000" x2="-325.000000" y1="100.000000" y2="125.000000" />
	<line x1="-300.000000" x2="-350.000000" y1="75.000000" y2="100.000000" />
	<line x1="-250.000000" x2="-275.000000" y1="100.000000" y2="125.000000" />
	<line x1="-250.000000" x2="-225.000000" y1="100.000000" y2="125.000000" />
	<line x1="-300.000000" x2="-250.000000" y1="75.000000" y2="100.000000" />
	<line x1="-200.000000" x2="-300.000000" y1="50.000000" y2="75.000000" />
	<line x1="-150.000000" x2="-175.000000" y1="100.000000" y2="125.000000" />
	<line x1="-150.000000" x2="-125.000000" y1="100.000000" y2="125.000000" />
	<line x1="-100.000000" x2="-150.000000" y1="75.000000" y2="100.000000" />
	<line x1="-50.000000" x2="-75.000000" y1="100.000000" y2="125.000000" />
	<line x1="-50.000000" x2="-25.000000" y1="100.000000" y2="125.000000" />
	<line x1="-100.000000" x2="-50.000000" y1="75.000000" y2="100.000000" />
	<line x1="-200.000000" x2="-100.000000" y1="50.000000" y2="75.000000" />
	<line x1="-400.000000" x2="-200.000000" y1="25.000000" y2="50.000000" />
	<line x1="0.000000" x2="-400.000000" y1="0.000000" y2="25.000000" />
	<line x1="50.000000" x2="25.000000" y1="100.000000" y2="125.000000" />
	<line x1="50.000000" x2="75.000000" y1="100.000000" y2="125.000000" />
	<line x1="100.000000" x2="50.000000" y1="75.000000" y2="100.000000" />
	<line x1="150.000000" x2="125.000000" y1="100.000000" y2="125.000000" />
	<line x1="150.000000" x2="175.000000" y1="100.000000" y2="125.000000" />
	<line x1="100.000000" x2="150.000000" y1="75.000000" y2="100.000000" />
	<line x1="200.000000" x2="100.000000" y1="50.000000" y2="75.000000" />
	<line x1="250.000000" x2="225.000000" y1="100.000000" y2="125.000000" />
	<line x1="250.000000" x2="275.000000" y1="100.000000" y2="125.000000" />
	<line x1="300.000000" x2="250.000000" y1="75.000000" y2="100.000000" />
	<line x1="350.000000" x2="325.000000" y1="100.000000" y2="125.000000" />
	<line x1="350.000000" x2="375.000000" y1="100.000000" y2="125.000000" />
	<line x1="300.000000" x2="350.000000" y1="75.000000" y2="100.000000" />
	<line x1="200.000000" x2="300.000000" y1="50.000000" y2="75.000000" />
	<line x1="400.000000" x2="200.000000" y1="25.000000" y2="50.000000" />
	<line x1="450.000000" x2="425.000000" y1="100.000000" y2="125.000000" />
	<line x1="450.000000" x2="475.000000" y1="100.000000" y2="125.000000" />
	<line x1="500.000000" x2="450.000000" y1="75.000000" y2="100.000000" />
	<line x1="550.000000" x2="525.000000" y1="100.000000" y2="125.000000" />
	<line x1="550.000000" x2="575.000000" y1="100.000000" y2="125.000000" />
	<line x1="500.000000" x2="550.000000" y1="75.000000" y2="100.000000" />
	<line x1="600.000000" x2="500.000000" y1="50.000000" y2="75.000000" />
	<line x1="650.000000" x2="625.000000" y1="100.000000" y2="125.000000" />
	<line x1="650.000000" x2="675.000000" y1="100.000000" y2="125.000000" />
	<line x1="700.000000" x2="650.000000" y1="75.000000" y2="100.000000" />
	<line x1="750.000000" x2="725.000000" y1="100.000000" y2="125.000000" />
	<line x1="750.000000" x2="775.000000" y1="100.000000" y2="125.000000" />
	<line x1="700.000000" x2="750.000000" y1="75.000000" y2="100.000000" />
	<line x1="600.000000" x2="700.000000" y1="50.000000" y2="75.000000" />
	<line x1="400.000000" x2="600.000000" y1="25.000000" y2="50.000000" />
	<line x1="0.000000" x2="400.000000" y1="0.000000" y2="25.000000" />
</g>
	<g>
	<circle cx="0.000000" cy="0.000000" r="10.000000" />
	<circle cx="-400.000000" cy="25.000000" r="10.000000" />
	<circle cx="-600.000000" cy="50.000000" r="10.000000" />
	<circle cx="-700.000000" cy="75.000000" r="10.000000" />
	<circle cx="-750.000000" cy="100.000000" r="10.000000" />
	<circle cx="-775.000000" cy="125.000000" r="10.000000" />
	<circle cx="-725.000000" cy="125.000000" r="10.000000" />
	<circle cx="-650.000000" cy="100.000000" r="10.000000" />
	<circle cx="-675.000000" cy="125.000000" r="10.000000" />
	<circle cx="-625.000000" cy="125.000000" r="10.000000" />
	<circle cx="-500.000000" cy="75.000000" r="10.000000" />
	<circle cx="-550.000000" cy="100.000000" r="10.000000" />
	<circle cx="-575.000000" cy="125.000000" r="10.000000" />
	<circle cx="-525.000000" cy="125.000000" r="10.000000" />
	<circle cx="-450.000000" cy="100.000000" r="10.000000" />
	<circle cx="-475.000000" cy="125.000000" r="10.000000" />
	<circle cx="-425.000000" cy="125.000000" r="10.000000" />
	<circle cx="-200.000000" cy="50.000000" r="10.000000" />
	<circle cx="-300.000000" cy="75.000000" r="10.000000" />
	<circle cx="-350.000000" cy="100.000000" r="10.000000" />
	<circle cx="-375.000000" cy="125.000000" r="10.000000" />
	<circle cx="-325.000000" cy="125.000000" r="10.000000" />
	<circle cx="-250.000000" cy="100.000000" r="10.000000" />
	<circle cx="-275.000000" cy="125.000000" r="10.000000" />
	<circle cx="-225.000000" cy="125.000000" r="10.000000" />
	<circle cx="-100.000000" cy="75.000000" r="10.000000" />
	<circle cx="-150.000000" cy="100.000000" r="10.000000" />
	<circle cx="-175.000000" cy="125.000000" r="10.000000" />
	<circle cx="-125.000000" cy="125.000000" r="10.000000" />
	<circle cx="-50.000000" cy="100.000000" r="10.000000" />
	<circle cx="-75.000000" cy="125.000000" r="10.000000" />
	<circle cx="-25.000000" cy="125.000000" r="10.000000" />
	<circle cx="400.000000" cy="25.000000" r="10.000000" />
	<circle cx="200.000000" cy="50.000000" r="10.000000" />
	<circle cx="100.000000" cy="75.000000" r="10.000000" />
	<circle cx="50.000000" cy="100.000000" r="10.000000" />
	<circle cx="25.000000" cy="125.000000" r="10.000000" />
	<circle cx="75.000000" cy="125.000000" r="10.000000" />
	<circle cx="150.000000" cy="100.000000" r="10.000000" />
	<circle cx="125.000000" cy="125.000000" r="10.000000" />
	<circle cx="175.000000" cy="125.000000" r="10.000000" />
	<circle cx="300.000000" cy="75.000000" r="10.000000" />
	<circle cx="250.000000" cy="100.000000" r="10.000000" />
	<circle cx="225.000000" cy="125.000000" r="10.000000" />
	<circle cx="275.000000" cy="125.000000" r="10.000000" />
	<circle cx="350.000000" cy="100.000000" r="10.000000" />
	<circle cx="325.000000" cy="125.000000" r="10.000000" />
	<circle cx="375.000000" cy="125.000000" r="10.000000" />
	<circle cx="600.000000" cy="50.000000" r="10.000000" />
	<circle cx="500.000000" cy="75.000000" r="10.000000" />
	<circle cx="450.000000" cy="100.000000" r="10.000000" />
	<circle cx="425.000000" cy="125.000000" r="10.000000" />
	<circle cx="475.000000" cy="125.000000" r="10.000000" />
	<circle cx="550.000000" cy="100.000000" r="10.000000" />
	<circle cx="525.000000" cy="125.000000" r="10.000000" />
	<circle cx="575.000000" cy="125.000000" r="10.000000" />
	<circle cx="700.000000" cy="75.000000" r="10.000000" />
	<circle cx="650.000000" cy="100.000000" r="10.000000" />
	<circle cx="625.000000" cy="125.000000" r="10.000000" />
	<circle cx="675.000000" cy="125.000000" r="10.000000" />
	<circle cx="750.000000" cy="100.000000" r="10.000000" />
	<circle cx="725.000000" cy="125.000000" r="10.000000" />
	<circle cx="775.000000" cy="125.000000" r="10.000000" />
</g>
</svg>