<svg height="106.0" viewBox="-3233.0 -3.0 6466.0 106.0" width="6466.0" xmlns="http://www.w3.org/2000/svg">
	<g stroke="black" stroke-width="1px">
		<line x1="-3200.0" x2="-3230.0" y1="80.0" y2="100.0" />
		<line x1="-3200.0" x2="-3200.0" y1="80.0" y2="100.0" />
		<line x1="-3200.0" x2="-3170.0" y1="80.0" y2="100.0" />
		<line x1="-3120.0" x2="-3200.0" y1="60.0" y2="80.0" />
		<line x1="-3120.0" x2="-3150.0" y1="80.0" y2="100.0" />
		<line x1="-3120.0" x2="-3120.0" y1="80.0" y2="100.0" />
		<line x1="-3120.0" x2="-3090.0" y1="80.0" y2="100.0" />
		<line x1="-3120.0" x2="-3120.0" y1="60.0" y2="80.0" />
		<line x1="-3040.0" x2="-3070.0" y1="80.0" y2="100.0" />
		<line x1="-3040.0" x2="-3040.0" y1="80.0" y2="100.0" />
		<line x1="-3040.0" x2="-3010.0" y1="80.0" y2="100.0" />
		<line x1="-3120.0" x2="-3040.0" y1="60.0" y2="80.0" />
		<line x1="-2880.0" x2="-3120.0" y1="40.0" y2="60.0" />
		<line x1="-2960.0" x2="-2990.0" y1="80.0" y2="100.0" />
		<line x1="-2960.0" x2="-2960.0" y1="80.0" y2="100.0" />
		<line x1="-2960.0" x2="-2930.0" y1="80.0" y2="100.0" />
		<line x1="-2880.0" x2="-2960.0" y1="60.0" y2="80.0" />
		<line x1="-2880.0" x2="-2910.0" y1="80.0" y2="100.0" />
		<line x1="-2880.0" x2="-2880.0" y1="80.0" y2="100.0" />
		<line x1="-2880.0" x2="-2850.0" y1="80.0" y2="100.0" />
		<line x1="-2880.0" x2="-2880.0" y1="60.0" y2="80.0" />
		<line x1="-2800.0" x2="-2830.0" y1="80.0" y2="100.0" />
		<line x1="-2800.0" x2="-2800.0" y1="80.0" y2="100.0" />
		<line x1="-2800.0" x2="-2770.0" y1="80.0" y2="100.0" />
		<line x1="-2880.0" x2="-2800.0" y1="60.0" y2="80.0" />
		<line x1="-2880.0" x2="-2880.0" y1="40.0" y2="60.0" />
		<line x1="-2720.0" x2="-2750.0" y1="80.0" y2="100.0" />
		<line x1="-2720.0" x2="-2720.0" y1="80.0" y2="100.0" />
		<line x1="-2720.0" x2="-2690.0" y1="80.0" y2="100.0" />
		<line x1="-2640.0" x2="-2720.0" y1="60.0" y2="80.0" />
		<line x1="-2640.0" x2="-2670.0" y1="80.0" y2="100.0" />
		<line x1="-2640.0" x2="-2640.0" y1="80.0" y2="100.0" />
		<line x1="-2640.0" x2="-2610.0" y1="80.0" y2="100.0" />
		<line x1="-2640.0" x2="-2640.0" y1="60.0" y2="80.0" />
		<line x1="-2560.0" x2="-2590.0" y1="80.0" y2="100.0" />
		<line x1="-2560.0" x2="-2560.0" y1="80.0" y2="100.0" />
		<line x1="-2560.0" x2="-2530.0" y1="80.0" y2="100.0" />
		<line x1="-2640.0" x2="-2560.0" y1="60.0" y2="80.0" />
		<line x1="-2880.0" x2="-2640.0" y1="40.0" y2="60.0" />
		<line x1="-2160.0" x2="-2880.0" y1="20.0" y2="40.0" />
		<line x1="-2480.0" x2="-2510.0" y1="80.0" y2="100.0" />
		<line x1="-2480.0" x2="-2480.0" y1="80.0" y2="100.0" />
		<line x1="-2480.0" x2="-2450.0" y1="80.0" y2="100.0" />
		<line x1="-2400.0" x2="-2480.0" y1="60.0" y2="80.0" />
		<line x1="-2400.0" x2="-2430.0" y1="80.0" y2="100.0" />
		<line x1="-2400.0" x2="-2400.0" y1="80.0" y2="100.0" />
		<line x1="-2400.0" x2="-2370.0" y1="80.0" y2="100.0" />
		<line x1="-2400.0" x2="-2400.0" y1="60.0" y2="80.0" />
		<line x1="-2320.0" x2="-2350.0" y1="80.0" y2="100.0" />
		<line x1="-2320.0" x2="-2320.0" y1="80.0" y2="100.0" />
		<line x1="-2320.0" x2="-2290.0" y1="80.0" y2="100.0" />
		<line x1="-2400.0" x2="-2320.0" y1="60.0" y2="80.0" />
		<line x1="-2160.0" x2="-2400.0" y1="40.0" y2="60.0" />
		<line x1="-2240.0" x2="-2270.0" y1="80.0" y2="100.0" />
		<line x1="-2240.0" x2="-2240.0" y1="80.0" y2="100.0" />
		<line x1="-2240.0" x2="-2210.0" y1="80.0" y2="100.0" />
		<line x1="-2160.0" x2="-2240.0" y1="60.0" y2="80.0" />
		<line x1="-2160.0" x2="-2190.0" y1="80.0" y2="100.0" />
		<line x1="-2160.0" x2="-2160.0" y1="80.0" y2="100.0" />
		<line x1="-2160.0" x2="-2130.0" y1="80.0" y2="100.0" />
		<line x1="-2160.0" x2="-2160.0" y1="60.0" y2="80.0" />
		<line x1="-2080.0" x2="-2110.0" y1="80.0" y2="100.0" />
		<line x1="-2080.0" x2="-2080.0" y1="80.0" y2="100.0" />
		<line x1="-2080.0" x2="-2050.0" y1="80.0" y2="100.0" />
		<line x1="-2160.0" x2="-2080.0" y1="60.0" y2="80.0" />
		<line x1="-2160.0" x2="-2160.0" y1="40.0" y2="60.0" />
		<line x1="-2000.0" x2="-2030.0" y1="80.0" y2="100.0" />
		<line x1="-2000.0" x2="-2000.0" y1="80.0" y2="100.0" />
		<line x1="-2000.0" x2="-1970.0" y1="80.0" y2="100.0" />
		<line x1="-1920.0" x2="-2000.0" y1="60.0" y2="80.0" />
		<line x1="-1920.0" x2="-1950.0" y1="80.0" y2="100.0" />
		<line x1="-1920.0" x2="-1920.0" y1="80.0" y2="100.0" />
		<line x1="-1920.0" x2="-1890.0" y1="80.0" y2="100.0" />
		<line x1="-1920.0" x2="-1920.0" y1="60.0" y2="80.0" />
		<line x1="-1840.0" x2="-1870.0" y1="80.0" y2="100.0" />
		<line x1="-1840.0" x2="-1840.0" y1="80.0" y2="100.0" />
		<line x1="-1840.0" x2="-1810.0" y1="80.0" y2="100.0" />
		<line x1="-1920.0" x2="-1840.0" y1="60.0" y2="80.0" />
		<line x1="-2160.0" x2="-1920.0" y1="40.0" y2="60.0" />
		<line x1="-2160.0" x2="-2160.0" y1="20.0" y2="40.0" />
		<line x1="-1760.0" x2="-1790.0" y1="80.0" y2="100.0" />
		<line x1="-1760.0" x2="-1760.0" y1="80.0" y2="100.0" />
		<line x1="-1760.0" x2="-1730.0" y1="80.0" y2="100.0" />
		<line x1="-1680.0" x2="-1760.0" y1="60.0" y2="80.0" />
		<line x1="-1680.0" x2="-1710.0" y1="80.0" y2="100.0" />
		<line x1="-1680.0" x2="-1680.0" y1="80.0" y2="100.0" />
		<line x1="-1680.0" x2="-1650.0" y1="80.0" y2="100.0" />
		<line x1="-1680.0" x2="-1680.0" y1="60.0" y2="80.0" />
		<line x1="-1600.0" x2="-1630.0" y1="80.0" y2="100.0" />
		<line x1="-1600.0" x2="-1600.0" y1="80.0" y2="100.0" />
		<line x1="-1600.0" x2="-1570.0" y1="80.0" y2="100.0" />
		<line x1="-1680.0" x2="-1600.0" y1="60.0" y2="80.0" />
		<line x1="-1440.0" x2="-1680.0" y1="40.0" y2="60.0" />
		<line x1="-1520.0" x2="-1550.0" y1="80.0" y2="100.0" />
		<line x1="-1520.0" x2="-1520.0" y1="80.0" y2="100.0" />
		<line x1="-1520.0" x2="-1490.0" y1="80.0" y2="100.0" />
		<line x1="-1440.0" x2="-1520.0" y1="60.0" y2="80.0" />
		<line x1="-1440.0" x2="-1470.0" y1="80.0" y2="100.0" />
		<line x1="-1440.0" x2="-1440.0" y1="80.0" y2="100.0" />
		<line x1="-1440.0" x2="-1410.0" y1="80.0" y2="100.0" />
		<line x1="-1440.0" x2="-1440.0" y1="60.0" y2="80.0" />
		<line x1="-1360.0" x2="-1390.0" y1="80.0" y2="100.0" />
		<line x1="-1360.0" x2="-1360.0" y1="80.0" y2="100.0" />
		<line x1="-1360.0" x2="-1330.0" y1="80.0" y2="100.0" />
		<line x1="-1440.0" x2="-1360.0" y1="60.0" y2="80.0" />
		<line x1="-1440.0" x2="-1440.0" y1="40.0" y2="60.0" />
		<line x1="-1280.0" x2="-1310.0" y1="80.0" y2="100.0" />
		<line x1="-1280.0" x2="-1280.0" y1="80.0" y2="100.0" />
		<line x1="-1280.0" x2="-1250.0" y1="80.0" y2="100.0" />
		<line x1="-1200.0" x2="-1280.0" y1="60.0" y2="80.0" />
		<line x1="-1200.0" x2="-1230.0" y1="80.0" y2="100.0" />
		<line x1="-1200.0" x2="-1200.0" y1="80.0" y2="100.0" />
		<line x1="-1200.0" x2="-1170.0" y1="80.0" y2="100.0" />
		<line x1="-1200.0" x2="-1200.0" y1="60.0" y2="80.0" />
		<line x1="-1120.0" x2="-1150.0" y1="80.0" y2="100.0" />
		<line x1="-1120.0" x2="-1120.0" y1="80.0" y2="100.0" />
		<line x1="-1120.0" x2="-1090.0" y1="80.0" y2="100.0" />
		<line x1="-1200.0" x2="-1120.0" y1="60.0" y2="80.0" />
		<line x1="-1440.0" x2="-1200.0" y1="40.0" y2="60.0" />
		<line x1="-2160.0" x2="-1440.0" y1="20.0" y2="40.0" />
		<line x1="0.0" x2="-2160.0" y1="0.0" y2="20.0" />
		<line x1="-1040.0" x2="-1070.0" y1="80.0" y2="100.0" />
		<line x1="-1040.0" x2="-1040.0" y1="80.0" y2="100.0" />
		<line x1="-1040.0" x2="-1010.0" y1="80.0" y2="100.0" />
		<line x1="-960.0" x2="-1040.0" y1="60.0" y2="80.0" />
		<line x1="-960.0" x2="-990.0" y1="80.0" y2="100.0" />
		<line x1="-960.0" x2="-960.0" y1="80.0" y2="100.0" />
		<line x1="-960.0" x2="-930.0" y1="80.0" y2="100.0" />
		<line x1="-960.0" x2="-960.0" y1="60.0" y2="80.0" />
		<line x1="-880.0" x2="-910.0" y1="80.0" y2="100.0" />
		<line x1="-880.0" x2="-880.0" y1="80.0" y2="100.0" />
		<line x1="-880.0" x2="-850.0" y1="80.0" y2="100.0" />
		<line x1="-960.0" x2="-880.0" y1="60.0" y2="80.0" />
		<line x1="-720.0" x2="-960.0" y1="40.0" y2="60.0" />
		<line x1="-800.0" x2="-830.0" y1="80.0" y2="100.0" />
		<line x1="-800.0" x2="-800.0" y1="80.0" y2="100.0" />
		<line x1="-800.0" x2="-770.0" y1="80.0" y2="100.0" />
		<line x1="-720.0" x2="-800.0" y1="60.0" y2="80.0" />
		<line x1="-720.0" x2="-750.0" y1="80.0" y2="100.0" />
		<line x1="-720.0" x2="-720.0" y1="80.0" y2="100.0" />
		<line x1="-720.0" x2="-690.0" y1="80.0" y2="100.0" />
		<line x1="-720.0" x2="-720.0" y1="60.0" y2="80.0" />
		<line x1="-640.0" x2="-670.0" y1="80.0" y2="100.0" />
		<line x1="-640.0" x2="-640.0" y1="80.0" y2="100.0" />
		<line x1="-640.0" x2="-610.0" y1="80.0" y2="100.0" />
		<line x1="-720.0" x2="-640.0" y1="60.0" y2="80.0" />
		<line x1="-720.0" x2="-720.0" y1="40.0" y2="60.0" />
		<line x1="-560.0" x2="-590.0" y1="80.0" y2="100.0" />
		<line x1="-560.0" x2="-560.0" y1="80.0" y2="100.0" />
		<line x1="-560.0" x2="-530.0" y1="80.0" y2="100.0" />
		<line x1="-480.0" x2="-560.0" y1="60.0" y2="80.0" />
		<line x1="-480.0" x2="-510.0" y1="80.0" y2="100.0" />
		<line x1="-480.0" x2="-480.0" y1="80.0" y2="100.0" />
		<line x1="-480.0" x2="-450.0" y1="80.0" y2="100.0" />
		<line x1="-480.0" x2="-480.0" y1="60.0" y2="80.0" />
		<line x1="-400.0" x2="-430.0" y1="80.0" y2="100.0" />
		<line x1="-400.0" x2="-400.0" y1="80.0" y2="100.0" />
		<line x1="-400.0" x2="-370.0" y1="80.0" y2="100.0" />
		<line x1="-480.0" x2="-400.0" y1="60.0" y2="80.0" />
		<line x1="-720.0" x2="-480.0" y1="40.0" y2="60.0" />
		<line x1="0.0" x2="-720.0" y1="20.0" y2="40.0" />
		<line x1="-320.0" x2="-350.0" y1="80.0" y2="100.0" />
		<line x1="-320.0" x2="-320.0" y1="80.0" y2="100.0" />
		<line x1="-320.0" x2="-290.0" y1="80.0" y2="100.0" />
		<line x1="-240.0" x2="-320.0" y1="60.0" y2="80.0" />
		<line x1="-240.0" x2="-270.0" y1="80.0" y2="100.0" />
		<line x1="-240.0" x2="-240.0" y1="80.0" y2="100.0" />
		<line x1="-240.0" x2="-210.0" y1="80.0" y2="100.0" />
		<line x1="-240.0" x2="-240.0" y1="60.0" y2="80.0" />
		<line x1="-160.0" x2="-190.0" y1="80.0" y2="100.0" />
		<line x1="-160.0" x2="-160.0" y1="80.0" y2="100.0" />
		<line x1="-160.0" x2="-130.0" y1="80.0" y2="100.0" />
		<line x1="-240.0" x2="-160.0" y1="60.0" y2="80.0" />
		<line x1="0.0" x2="-240.0" y1="40.0" y2="60.0" />
		<line x1="-80.0" x2="-110.0" y1="80.0" y2="100.0" />
		<line x1="-80.0" x2="-80.0" y1="80.0" y2="100.0" />
		<line x1="-80.0" x2="-50.0" y1="80.0" y2="100.0" />
		<line x1="0.0" x2="-80.0" y1="60.0" y2="80.0" />
		<line x1="0.0" x2="-30.0" y1="80.0" y2="100.0" />
		<line x1="0.0" x2="0.0" y1="80.0" y2="100.0" />
		<line x1="0.0" x2="30.0" y1="80.0" y2="100.0" />
		<line x1="0.0" x2="0.0" y1="60.0" y2="80.0" />
		<line x1="80.0" x2="50.0" y1="80.0" y2="100.0" />
		<line x1="80.0" x2="80.0" y1="80.0" y2="100.0" />
		<line x1="80.0" x2="110.0" y1="80.0" y2="100.0" />
		<line x1="0.0" x2="80.0" y1="60.0" y2="80.0" />
		<line x1="0.0" x2="0.0" y1="40.0" y2="60.0" />
		<line x1="160.0" x2="130.0" y1="80.0" y2="100.0" />
		<line x1="160.0" x2="160.0" y1="80.0" y2="100.0" />
		<line x1="160.0" x2="190.0" y1="80.0" y2="100.0" />
		<line x1="240.0" x2="160.0" y1="60.0" y2="80.0" />
		<line x1="240.0" x2="210.0" y1="80.0" y2="100.0" />
		<line x1="240.0" x2="240.0" y1="80.0" y2="100.0" />
		<line x1="240.0" x2="270.0" y1="80.0" y2="100.0" />
		<line x1="240.0" x2="240.0" y1="60.0" y2="80.0" />
		<line x1="320.0" x2="290.0" y1="80.0" y2="100.0" />
		<line x1="320.0" x2="320.0" y1="80.0" y2="100.0" />
		<line x1="320.0" x2="350.0" y1="80.0" y2="100.0" />
		<line x1="240.0" x2="320.0" y1="60.0" y2="80.0" />
		<line x1="0.0" x2="240.0" y1="40.0" y2="60.0" />
		<line x1="0.0" x2="0.0" y1="20.0" y2="40.0" />
		<line x1="400.0" x2="370.0" y1="80.0" y2="100.0" />
		<line x1="400.0" x2="400.0" y1="80.0" y2="100.0" />
		<line x1="400.0" x2="430.0" y1="80.0" y2="100.0" />
		<line x1="480.0" x2="400.0" y1="60.0" y2="80.0" />
		<line x1="480.0" x2="450.0" y1="80.0" y2="100.0" />
		<line x1="480.0" x2="480.0" y1="80.0" y2="100.0" />
		<line x1="480.0" x2="510.0" y1="80.0" y2="100.0" />
		<line x1="480.0" x2="480.0" y1="60.0" y2="80.0" />
		<line x1="560.0" x2="530.0" y1="80.0" y2="100.0" />
		<line x1="560.0" x2="560.0" y1="80.0" y2="100.0" />
		<line x1="560.0" x2="590.0" y1="80.0" y2="100.0" />
		<line x1="480.0" x2="560.0" y1="60.0" y2="80.0" />
		<line x1="720.0" x2="480.0" y1="40.0" y2="60.0" />
		<line x1="640.0" x2="610.0" y1="80.0" y2="100.0" />
		<line x1="640.0" x2="640.0" y1="80.0" y2="100.0" />
		<line x1="640.0" x2="670.0" y1="80.0" y2="100.0" />
		<line x1="720.0" x2="640.0" y1="60.0" y2="80.0" />
		<line x1="720.0" x2="690.0" y1="80.0" y2="100.0" />
		<line x1="720.0" x2="720.0" y1="80.0" y2="100.0" />
		<line x1="720.0" x2="750.0" y1="80.0" y2="100.0" />
		<line x1="720.0" x2="720.0" y1="60.0" y2="80.0" />
		<line x1="800.0" x2="770.0" y1="80.0" y2="100.0" />
		<line x1="800.0" x2="800.0" y1="80.0" y2="100.0" />
		<line x1="800.0" x2="830.0" y1="80.0" y2="100.0" />
		<line x1="720.0" x2="800.0" y1="60.0" y2="80.0" />
		<line x1="720.0" x2="720.0" y1="40.0" y2="60.0" />
		<line x1="880.0" x2="850.0" y1="80.0" y2="100.0" />
		<line x1="880.0" x2="880.0" y1="80.0" y2="100.0" />
		<line x1="880.0" x2="910.0" y1="80.0" y2="100.0" />
		<line x1="960.0" x2="880.0" y1="60.0" y2="80.0" />
		<line x1="960.0" x2="930.0" y1="80.0" y2="100.0" />
		<line x1="960.0" x2="960.0" y1="80.0" y2="100.0" />
		<line x1="960.0" x2="990.0" y1="80.0" y2="100.0" />
		<line x1="960.0" x2="960.0" y1="60.0" y2="80.0" />
		<line x1="1040.0" x2="1010.0" y1="80.0" y2="100.0" />
		<line x1="1040.0" x2="1040.0" y1="80.0" y2="100.0" />
		<line x1="1040.0" x2="1070.0" y1="80.0" y2="100.0" />
		<line x1="960.0" x2="1040.0" y1="60.0" y2="80.0" />
		<line x1="720.0" x2="960.0" y1="40.0" y2="60.0" />
		<line x1="0.0" x2="720.0" y1="20.0" y2="40.0" />
		<line x1="0.0" x2="0.0" y1="0.0" y2="20.0" />
		<line x1="1120.0" x2="1090.0" y1="80.0" y2="100.0" />
		<line x1="1120.0" x2="1120.0" y1="80.0" y2="100.0" />
		<line x1="1120.0" x2="1150.0" y1="80.0" y2="100.0" />
		<line x1="1200.0" x2="1120.0" y1="60.0" y2="80.0" />
		<line x1="1200.0" x2="1170.0" y1="80.0" y2="100.0" />
		<line x1="1200.0" x2="1200.0" y1="80.0" y2="100.0" />
		<line x1="1200.0" x2="1230.0" y1="80.0" y2="100.0" />
		<line x1="1200.0" x2="1200.0" y1="60.0" y2="80.0" />
		<line x1="1280.0" x2="1250.0" y1="80.0" y2="100.0" />
		<line x1="1280.0" x2="1280.0" y1="80.0" y2="100.0" />
		<line x1="1280.0" x2="1310.0" y1="80.0" y2="100.0" />
		<line x1="1200.0" x2="1280.0" y1="60.0" y2="80.0" />
		<line x1="1440.0" x2="1200.0" y1="40.0" y2="60.0" />
		<line x1="1360.0" x2="1330.0" y1="80.0" y2="100.0" />
		<line x1="1360.0" x2="1360.0" y1="80.0" y2="100.0" />
		<line x1="1360.0" x2="1390.0" y1="80.0" y2="100.0" />
		<line x1="1440.0" x2="1360.0" y1="60.0" y2="80.0" />
		<line x1="1440.0" x2="1410.0" y1="80.0" y2="100.0" />
		<line x1="1440.0" x2="1440.0" y1="80.0" y2="100.0" />
		<line x1="1440.0" x2="1470.0" y1="80.0" y2="100.0" />
		<line x1="1440.0" x2="1440.0" y1="60.0" y2="80.0" />
		<line x1="1520.0" x2="1490.0" y1="80.0" y2="100.0" />
		<line x1="1520.0" x2="1520.0" y1="80.0" y2="100.0" />
		<line x1="1520.0" x2="1550.0" y1="80.0" y2="100.0" />
		<line x1="1440.0" x2="1520.0" y1="60.0" y2="80.0" />
		<line x1="1440.0" x2="1440.0" y1="40.0" y2="60.0" />
		<line x1="1600.0" x2="1570.0" y1="80.0" y2="100.0" />
		<line x1="1600.0" x2="1600.0" y1="80.0" y2="100.0" />
		<line x1="1600.0" x2="1630.0" y1="80.0" y2="100.0" />
		<line x1="1680.0" x2="1600.0" y1="60.0" y2="80.0" />
		<line x1="1680.0" x2="1650.0" y1="80.0" y2="100.0" />
		<line x1="1680.0" x2="1680.0" y1="80.0" y2="100.0" />
		<line x1="1680.0" x2="1710.0" y1="80.0" y2="100.0" />
		<line x1="1680.0" x2="1680.0" y1="60.0" y2="80.0" />
		<line x1="1760.0" x2="1730.0" y1="80.0" y2="100.0" />
		<line x1="1760.0" x2="1760.0" y1="80.0" y2="100.0" />
		<line x1="1760.0" x2="1790.0" y1="80.0" y2="100.0" />
		<line x1="1680.0" x2="1760.0" y1="60.0" y2="80.0" />
		<line x1="1440.0" x2="1680.0" y1="40.0" y2="60.0" />
		<line x1="2160.0" x2="1440.0" y1="20.0" y2="40.0" />
		<line x1="1840.0" x2="1810.0" y1="80.0" y2="100.0" />
		<line x1="1840.0" x2="1840.0" y1="80.0" y2="100.0" />
		<line x1="1840.0" x2="1870.0" y1="80.0" y2="100.0" />
		<line x1="1920.0" x2="1840.0" y1="60.0" y2="80.0" />
		<line x1="1920.0" x2="1890.0" y1="80.0" y2="100.0" />
		<line x1="1920.0" x2="1920.0" y1="80.0" y2="100.0" />
		<line x1="1920.0" x2="1950.0" y1="80.0" y2="100.0" />
		<line x1="1920.0" x2="1920.0" y1="60.0" y2="80.0" />
		<line x1="2000.0" x2="1970.0" y1="80.0" y2="100.0" />
		<line x1="2000.0" x2="2000.0" y1="80.0" y2="100.0" />
		<line x1="2000.0" x2="2030.0" y1="80.0" y2="100.0" />
		<line x1="1920.0" x2="2000.0" y1="60.0" y2="80.0" />
		<line x1="2160.0" x2="1920.0" y1="40.0" y2="60.0" />
		<line x1="2080.0" x2="2050.0" y1="80.0" y2="100.0" />
		<line x1="2080.0" x2="2080.0" y1="80.0" y2="100.0" />
		<line x1="2080.0" x2="2110.0" y1="80.0" y2="100.0" />
		<line x1="2160.0" x2="2080.0" y1="60.0" y2="80.0" />
		<line x1="2160.0" x2="2130.0" y1="80.0" y2="100.0" />
		<line x1="2160.0" x2="2160.0" y1="80.0" y2="100.0" />
		<line x1="2160.0" x2="2190.0" y1="80.0" y2="100.0" />
		<line x1="2160.0" x2="2160.0" y1="60.0" y2="80.0" />
		<line x1="2240.0" x2="2210.0" y1="80.0" y2="100.0" />
		<line x1="2240.0" x2="2240.0" y1="80.0" y2="100.0" />
		<line x1="2240.0" x2="2270.0" y1="80.0" y2="100.0" />
		<line x1="2160.0" x2="2240.0" y1="60.0" y2="80.0" />
		<line x1="2160.0" x2="2160.0" y1="40.0" y2="60.0" />
		<line x1="2320.0" x2="2290.0" y1="80.0" y2="100.0" />
		<line x1="2320.0" x2="2320.0" y1="80.0" y2="100.0" />
		<line x1="2320.0" x2="2350.0" y1="80.0" y2="100.0" />
		<line x1="2400.0" x2="2320.0" y1="60.0" y2="80.0" />
		<line x1="2400.0" x2="2370.0" y1="80.0" y2="100.0" />
		<line x1="2400.0" x2="2400.0" y1="80.0" y2="100.0" />
		<line x1="2400.0" x2="2430.0" y1="80.0" y2="100.0" />
		<line x1="2400.0" x2="2400.0" y1="60.0" y2="80.0" />
		<line x1="2480.0" x2="2450.0" y1="80.0" y2="100.0" />
		<line x1="2480.0" x2="2480.0" y1="80.0" y2="100.0" />
		<line x1="2480.0" x2="2510.0" y1="80.0" y2="100.0" />
		<line x1="2400.0" x2="2480.0" y1="60.0" y2="80.0" />
		<line x1="2160.0" x2="2400.0" y1="40.0" y2="60.0" />
		<line x1="2160.0" x2="2160.0" y1="20.0" y2="40.0" />
		<line x1="2560.0" x2="2530.0" y1="80.0" y2="100.0" />
		<line x1="2560.0" x2="2560.0" y1="80.0" y2="100.0" />
		<line x1="2560.0" x2="2590.0" y1="80.0" y2="100.0" />
		<line x1="2640.0" x2="2560.0" y1="60.0" y2="80.0" />
		<line x1="2640.0" x2="2610.0" y1="80.0" y2="100.0" />
		<line x1="2640.0" x2="2640.0" y1="80.0" y2="100.0" />
		<line x1="2640.0" x2="2670.0" y1="80.0" y2="100.0" />
		<line x1="2640.0" x2="2640.0" y1="60.0" y2="80.0" />
		<line x1="2720.0" x2="2690.0" y1="80.0" y2="100.0" />
		<line x1="2720.0" x2="2720.0" y1="80.0" y2="100.0" />
		<line x1="2720.0" x2="2750.0" y1="80.0" y2="100.0" />
		<line x1="2640.0" x2="2720.0" y1="60.0" y2="80.0" />
		<line x1="2880.0" x2="2640.0" y1="40.0" y2="60.0" />
		<line x1="2800.0" x2="2770.0" y1="80.0" y2="100.0" />
		<line x1="2800.0" x2="2800.0" y1="80.0" y2="100.0" />
		<line x1="2800.0" x2="2830.0" y1="80.0" y2="100.0" />
		<line x1="2880.0" x2="2800.0" y1="60.0" y2="80.0" />
		<line x1="2880.0" x2="2850.0" y1="80.0" y2="100.0" />
		<line x1="2880.0" x2="2880.0" y1="80.0" y2="100.0" />
		<line x1="2880.0" x2="2910.0" y1="80.0" y2="100.0" />
		<line x1="2880.0" x2="2880.0" y1="60.0" y2="80.0" />
		<line x1="2960.0" x2="2930.0" y1="80.0" y2="100.0" />
		<line x1="2960.0" x2="2960.0" y1="80.0" y2="100.0" />
		<line x1="2960.0" x2="2990.0" y1="80.0" y2="100.0" />
		<line x1="2880.0" x2="2960.0" y1="60.0" y2="80.0" />
		<line x1="2880.0" x2="2880.0" y1="40.0" y2="60.0" />
		<line x1="3040.0" x2="3010.0" y1="80.0" y2="100.0" />
		<line x1="3040.0" x2="3040.0" y1="80.0" y2="100.0" />
		<line x1="3040.0" x2="3070.0" y1="80.0" y2="100.0" />
		<line x1="3120.0" x2="3040.0" y1="60.0" y2="80.0" />
		<line x1="3120.0" x2="3090.0" y1="80.0" y2="100.0" />
		<line x1="3120.0" x2="3120.0" y1="80.0" y2="100.0" />
		<line x1="3120.0" x2="3150.0" y1="80.0" y2="100.0" />
		<line x1="3120.0" x2="3120.0" y1="60.0" y2="80.0" />
		<line x1="3200.0" x2="3170.0" y1="80.0" y2="100.0" />
		<line x1="3200.0" x2="3200.0" y1="80.0" y2="100.0" />
		<line x1="3200.0" x2="3230.0" y1="80.0" y2="100.0" />
		<line x1="3120.0" x2="3200.0" y1="60.0" y2="80.0" />
		<line x1="2880.0" x2="3120.0" y1="40.0" y2="60.0" />
		<line x1="2160.0" x2="2880.0" y1="20.0" y2="40.0" />
		<line x1="0.0" x2="2160.0" y1="0.0" y2="20.0" />
	</g>
	<g>
		<circle cx="0.0" cy="0.0" r="3.0" />
		<circle cx="-2160.0" cy="20.0" r="3.0" />
		<circle cx="-2880.0" cy="40.0" r="3.0" />
		<circle cx="-3120.0" cy="60.0" r="3.0" />
		<circle cx="-3200.0" cy="80.0" r="3.0" />
		<circle cx="-3230.0" cy="100.0" r="3.0" />
		<circle cx="-3200.0" cy="100.0" r="3.0" />
		<circle cx="-3170.0" cy="100.0" r="3.0" />
		<circle cx="-3120.0" cy="80.0" r="3.0" />
		<circle cx="-3150.0" cy="100.0" r="3.0" />
		<circle cx="-3120.0" cy="100.0" r="3.0" />
		<circle cx="-3090.0" cy="100.0" r="3.0" />
		<circle cx="-3040.0" cy="80.0" r="3.0" />
		<circle cx="-3070.0" cy="100.0" r="3.0" />
		<circle cx="-3040.0" cy="100.0" r="3.0" />
		<circle cx="-3010.0" cy="100.0" r="3.0" />
		<circle cx="-2880.0" cy="60.0" r="3.0" />
		<circle cx="-2960.0" cy="80.0" r="3.0" />
		<circle cx="-2990.0" cy="100.0" r="3.0" />
		<circle cx="-2960.0" cy="100.0" r="3.0" />
		<circle cx="-2930.0" cy="100.0" r="3.0" />
		<circle cx="-2880.0" cy="80.0" r="3.0" />
		<circle cx="-2910.0" cy="100.0" r="3.0" />
		<circle cx="-2880.0" cy="100.0" r="3.0" />
		<circle cx="-2850.0" cy="100.0" r="3.0" />
		<circle cx="-2800.0" cy="80.0" r="3.0" />
		<circle cx="-2830.0" cy="100.0" r="3.0" />
		<circle cx="-2800.0" cy="100.0" r="3.0" />
		<circle cx="-2770.0" cy="100.0" r="3.0" />
		<circle cx="-2640.0" cy="60.0" r="3.0" />
		<circle cx="-2720.0" cy="80.0" r="3.0" />
		<circle cx="-2750.0" cy="100.0" r="3.0" />
		<circle cx="-2720.0" cy="100.0" r="3.0" />
		<circle cx="-2690.0" cy="100.0" r="3.0" />
		<circle cx="-2640.0" cy="80.0" r="3.0" />
		<circle cx="-2670.0" cy="100.0" r="3.0" />
		<circle cx="-2640.0" cy="100.0" r="3.0" />
		<circle cx="-2610.0" cy="100.0" r="3.0" />
		<circle cx="-2560.0" cy="80.0" r="3.0" />
		<circle cx="-2590.0" cy="100.0" r="3.0" />
		<circle cx="-2560.0" cy="100.0" r="3.0" />
		<circle cx="-2530.0" cy="100.0" r="3.0" />
		<circle cx="-2160.0" cy="40.0" r="3.0" />
		<circle cx="-2400.0" cy="60.0" r="3.0" />
		<circle cx="-2480.0" cy="80.0" r="3.0" />
		<circle cx="-2510.0" cy="100.0" r="3.0" />
		<circle cx="-2480.0" cy="100.0" r="3.0" />
		<circle cx="-2450.0" cy="100.0" r="3.0" />
		<circle cx="-2400.0" cy="80.0" r="3.0" />
		<circle cx="-2430.0" cy="100.0" r="3.0" />
		<circle cx="-2400.0" cy="100.0" r="3.0" />
		<circle cx="-2370.0" cy="100.0" r="3.0" />
		<circle cx="-2320.0" cy="80.0" r="3.0" />
		<circle cx="-2350.0" cy="100.0" r="3.0" />
		<circle cx="-2320.0" cy="100.0" r="3.0" />
		<circle cx="-2290.0" cy="100.0" r="3.0" />
		<circle cx="-2160.0" cy="60.0" r="3.0" />
		<circle cx="-2240.0" cy="80.0" r="3.0" />
		<circle cx="-2270.0" cy="100.0" r="3.0" />
		<circle cx="-2240.0" cy="100.0" r="3.0" />
		<circle cx="-2210.0" cy="100.0" r="3.0" />
		<circle cx="-2160.0" cy="80.0" r="3.0" />
		<circle cx="-2190.0" cy="100.0" r="3.0" />
		<circle cx="-2160.0" cy="100.0" r="3.0" />
		<circle cx="-2130.0" cy="100.0" r="3.0" />
		<circle cx="-2080.0" cy="80.0" r="3.0" />
		<circle cx="-2110.0" cy="100.0" r="3.0" />
		<circle cx="-2080.0" cy="100.0" r="3.0" />
		<circle cx="-2050.0" cy="100.0" r="3.0" />
		<circle cx="-1920.0" cy="60.0" r="3.0" />
		<circle cx="-2000.0" cy="80.0" r="3.0" />
		<circle cx="-2030.0" cy="100.0" r="3.0" />
		<circle cx="-2000.0" cy="100.0" r="3.0" />
		<circle cx="-1970.0" cy="100.0" r="3.0" />
		<circle cx="-1920.0" cy="80.0" r="3.0" />
		<circle cx="-1950.0" cy="100.0" r="3.0" />
		<circle cx="-1920.0" cy="100.0" r="3.0" />
		<circle cx="-1890.0" cy="100.0" r="3.0" />
		<circle cx="-1840.0" cy="80.0" r="3.0" />
		<circle cx="-1870.0" cy="100.0" r="3.0" />
		<circle cx="-1840.0" cy="100.0" r="3.0" />
		<circle cx="-1810.0" cy="100.0" r="3.0" />
		<circle cx="-1440.0" cy="40.0" r="3.0" />
		<circle cx="-1680.0" cy="60.0" r="3.0" />
		<circle cx="-1760.0" cy="80.0" r="3.0" />
		<circle cx="-1790.0" cy="100.0" r="3.0" />
		<circle cx="-1760.0" cy="100.0" r="3.0" />
		<circle cx="-1730.0" cy="100.0" r="3.0" />
		<circle cx="-1680.0" cy="80.0" r="3.0" />
		<circle cx="-1710.0" cy="100.0" r="3.0" />
		<circle cx="-1680.0" cy="100.0" r="3.0" />
		<circle cx="-1650.0" cy="100.0" r="3.0" />
		<circle cx="-1600.0" cy="80.0" r="3.0" />
		<circle cx="-1630.0" cy="100.0" r="3.0" />
		<circle cx="-1600.0" cy="100.0" r="3.0" />
		<circle cx="-1570.0" cy="100.0" r="3.0" />
		<circle cx="-1440.0" cy="60.0" r="3.0" />
		<circle cx="-1520.0" cy="80.0" r="3.0" />
		<circle cx="-1550.0" cy="100.0" r="3.0" />
		<circle cx="-1520.0" cy="100.0" r="3.0" />
		<circle cx="-1490.0" cy="100.0" r="3.0" />
		<circle cx="-1440.0" cy="80.0" r="3.0" />
		<circle cx="-1470.0" cy="100.0" r="3.0" />
		<circle cx="-1440.0" cy="100.0" r="3.0" />
		<circle cx="-1410.0" cy="100.0" r="3.0" />
		<circle cx="-1360.0" cy="80.0" r="3.0" />
		<circle cx="-1390.0" cy="100.0" r="3.0" />
		<circle cx="-1360.0" cy="100.0" r="3.0" />
		<circle cx="-1330.0" cy="100.0" r="3.0" />
		<circle cx="-1200.0" cy="60.0" r="3.0" />
		<circle cx="-1280.0" cy="80.0" r="3.0" />
		<circle cx="-1310.0" cy="100.0" r="3.0" />
		<circle cx="-1280.0" cy="100.0" r="3.0" />
		<circle cx="-1250.0" cy="100.0" r="3.0" />
		<circle cx="-1200.0" cy="80.0" r="3.0" />
		<circle cx="-1230.0" cy="100.0" r="3.0" />
		<circle cx="-1200.0" cy="100.0" r="3.0" />
		<circle cx="-1170.0" cy="100.0" r="3.0" />
		<circle cx="-1120.0" cy="80.0" r="3.0" />
		<circle cx="-1150.0" cy="100.0" r="3.0" />
		<circle cx="-1120.0" cy="100.0" r="3.0" />
		<circle cx="-1090.0" cy="100.0" r="3.0" />
		<circle cx="0.0" cy="20.0" r="3.0" />
		<circle cx="-720.0" cy="40.0" r="3.0" />
		<circle cx="-960.0" cy="60.0" r="3.0" />
		<circle cx="-1040.0" cy="80.0" r="3.0" />
		<circle cx="-1070.0" cy="100.0" r="3.0" />
		<circle cx="-1040.0" cy="100.0" r="3.0" />
		<circle cx="-1010.0" cy="100.0" r="3.0" />
		<circle cx="-960.0" cy="80.0" r="3.0" />
		<circle cx="-990.0" cy="100.0" r="3.0" />
		<circle cx="-960.0" cy="100.0" r="3.0" />
		<circle cx="-930.0" cy="100.0" r="3.0" />
		<circle cx="-880.0" cy="80.0" r="3.0" />
		<circle cx="-910.0" cy="100.0" r="3.0" />
		<circle cx="-880.0" cy="100.0" r="3.0" />
		<circle cx="-850.0" cy="100.0" r="3.0" />
		<circle cx="-720.0" cy="60.0" r="3.0" />
		<circle cx="-800.0" cy="80.0" r="3.0" />
		<circle cx="-830.0" cy="100.0" r="3.0" />
		<circle cx="-800.0" cy="100.0" r="3.0" />
		<circle cx="-770.0" cy="100.0" r="3.0" />
		<circle cx="-720.0" cy="80.0" r="3.0" />
		<circle cx="-750.0" cy="100.0" r="3.0" />
		<circle cx="-720.0" cy="100.0" r="3.0" />
		<circle cx="-690.0" cy="100.0" r="3.0" />
		<circle cx="-640.0" cy="80.0" r="3.0" />
		<circle cx="-670.0" cy="100.0" r="3.0" />
		<circle cx="-640.0" cy="100.0" r="3.0" />
		<circle cx="-610.0" cy="100.0" r="3.0" />
		<circle cx="-480.0" cy="60.0" r="3.0" />
		<circle cx="-560.0" cy="80.0" r="3.0" />
		<circle cx="-590.0" cy="100.0" r="3.0" />
		<circle cx="-560.0" cy="100.0" r="3.0" />
		<circle cx="-530.0" cy="100.0" r="3.0" />
		<circle cx="-480.0" cy="80.0" r="3.0" />
		<circle cx="-510.0" cy="100.0" r="3.0" />
		<circle cx="-480.0" cy="100.0" r="3.0" />
		<circle cx="-450.0" cy="100.0" r="3.0" />
		<circle cx="-400.0" cy="80.0" r="3.0" />
		<circle cx="-430.0" cy="100.0" r="3.0" />
		<circle cx="-400.0" cy="100.0" r="3.0" />
		<circle cx="-370.0" cy="100.0" r="3.0" />
		<circle cx="0.0" cy="40.0" r="3.0" />
		<circle cx="-240.0" cy="60.0" r="3.0" />
		<circle cx="-320.0" cy="80.0" r="3.0" />
		<circle cx="-350.0" cy="100.0" r="3.0" />
		<circle cx="-320.0" cy="100.0" r="3.0" />
		<circle cx="-290.0" cy="100.0" r="3.0" />
		<circle cx="-240.0" cy="80.0" r="3.0" />
		<circle cx="-270.0" cy="100.0" r="3.0" />
		<circle cx="-240.0" cy="100.0" r="3.0" />
		<circle cx="-210.0" cy="100.0" r="3.0" />
		<circle cx="-160.0" cy="80.0" r="3.0" />
		<circle cx="-190.0" cy="100.0" r="3.0" />
		<circle cx="-160.0" cy="100.0" r="3.0" />
		<circle cx="-130.0" cy="100.0" r="3.0" />
		<circle cx="0.0" cy="60.0" r="3.0" />
		<circle cx="-80.0" cy="80.0" r="3.0" />
		<circle cx="-110.0" cy="100.0" r="3.0" />
		<circle cx="-80.0" cy="100.0" r="3.0" />
		<circle cx="-50.0" cy="100.0" r="3.0" />
		<circle cx="0.0" cy="80.0" r="3.0" />
		<circle cx="-30.0" cy="100.0" r="3.0" />
		<circle cx="0.0" cy="100.0" r="3.0" />
		<circle cx="30.0" cy="100.0" r="3.0" />
		<circle cx="80.0" cy="80.0" r="3.0" />
		<circle cx="50.0" cy="100.0" r="3.0" />
		<circle cx="80.0" cy="100.0" r="3.0" />
		<circle cx="110.0" cy="100.0" r="3.0" />
		<circle cx="240.0" cy="60.0" r="3.0" />
		<circle cx="160.0" cy="80.0" r="3.0" />
		<circle cx="130.0" cy="100.0" r="3.0" />
		<circle cx="160.0" cy="100.0" r="3.0" />
		<circle cx="190.0" cy="100.0" r="3.0" />
		<circle cx="240.0" cy="80.0" r="3.0" />
		<circle cx="210.0" cy="100.0" r="3.0" />
		<circle cx="240.0" cy="100.0" r="3.0" />
		<circle cx="270.0" cy="100.0" r="3.0" />
		<circle cx="320.0" cy="80.0" r="3.0" />
		<circle cx="290.0" cy="100.0" r="3.0" />
		<circle cx="320.0" cy="100.0" r="3.0" />
		<circle cx="350.0" cy="100.0" r="3.0" />
		<circle cx="720.0" cy="40.0" r="3.0" />
		<circle cx="480.0" cy="60.0" r="3.0" />
		<circle cx="400.0" cy="80.0" r="3.0" />
		<circle cx="370.0" cy="100.0" r="3.0" />
		<circle cx="400.0" cy="100.0" r="3.0" />
		<circle cx="430.0" cy="100.0" r="3.0" />
		<circle cx="480.0" cy="80.0" r="3.0" />
		<circle cx="450.0" cy="100.0" r="3.0" />
		<circle cx="480.0" cy="100.0" r="3.0" />
		<circle cx="510.0" cy="100.0" r="3.0" />
		<circle cx="560.0" cy="80.0" r="3.0" />
		<circle cx="530.0" cy="100.0" r="3.0" />
		<circle cx="560.0" cy="100.0" r="3.0" />
		<circle cx="590.0" cy="100.0" r="3.0" />
		<circle cx="720.0" cy="60.0" r="3.0" />
		<circle cx="640.0" cy="80.0" r="3.0" />
		<circle cx="610.0" cy="100.0" r="3.0" />
		<circle cx="640.0" cy="100.0" r="3.0" />
		<circle cx="670.0" cy="100.0" r="3.0" />
		<circle cx="720.0" cy="80.0" r="3.0" />
		<circle cx="690.0" cy="100.0" r="3.0" />
		<circle cx="720.0" cy="100.0" r="3.0" />
		<circle cx="750.0" cy="100.0" r="3.0" />
		<circle cx="800.0" cy="80.0" r="3.0" />
		<circle cx="770.0" cy="100.0" r="3.0" />
		<circle cx="800.0" cy="100.0" r="3.0" />
		<circle cx="830.0" cy="100.0" r="3.0" />
		<circle cx="960.0" cy="60.0" r="3.0" />
		<circle cx="880.0" cy="80.0" r="3.0" />
		<circle cx="850.0" cy="100.0" r="3.0" />
		<circle cx="880.0" cy="100.0" r="3.0" />
		<circle cx="910.0" cy="100.0" r="3.0" />
		<circle cx="960.0" cy="80.0" r="3.0" />
		<circle cx="930.0" cy="100.0" r="3.0" />
		<circle cx="960.0" cy="100.0" r="3.0" />
		<circle cx="990.0" cy="100.0" r="3.0" />
		<circle cx="1040.0" cy="80.0" r="3.0" />
		<circle cx="1010.0" cy="100.0" r="3.0" />
		<circle cx="1040.0" cy="100.0" r="3.0" />
		<circle cx="1070.0" cy="100.0" r="3.0" />
		<circle cx="2160.0" cy="20.0" r="3.0" />
		<circle cx="1440.0" cy="40.0" r="3.0" />
		<circle cx="1200.0" cy="60.0" r="3.0" />
		<circle cx="1120.0" cy="80.0" r="3.0" />
		<circle cx="1090.0" cy="100.0" r="3.0" />
		<circle cx="1120.0" cy="100.0" r="3.0" />
		<circle cx="1150.0" cy="100.0" r="3.0" />
		<circle cx="1200.0" cy="80.0" r="3.0" />
		<circle cx="1170.0" cy="100.0" r="3.0" />
		<circle cx="1200.0" cy="100.0" r="3.0" />
		<circle cx="1230.0" cy="100.0" r="3.0" />
		<circle cx="1280.0" cy="80.0" r="3.0" />
		<circle cx="1250.0" cy="100.0" r="3.0" />
		<circle cx="1280.0" cy="100.0" r="3.0" />
		<circle cx="1310.0" cy="100.0" r="3.0" />
		<circle cx="1440.0" cy="60.0" r="3.0" />
		<circle cx="1360.0" cy="80.0" r="3.0" />
		<circle cx="1330.0" cy="100.0" r="3.0" />
		<circle cx="1360.0" cy="100.0" r="3.0" />
		<circle cx="1390.0" cy="100.0" r="3.0" />
		<circle cx="1440.0" cy="80.0" r="3.0" />
		<circle cx="1410.0" cy="100.0" r="3.0" />
		<circle cx="1440.0" cy="100.0" r="3.0" />
		<circle cx="1470.0" cy="100.0" r="3.0" />
		<circle cx="1520.0" cy="80.0" r="3.0" />
		<circle cx="1490.0" cy="100.0" r="3.0" />
		<circle cx="1520.0" cy="100.0" r="3.0" />
		<circle cx="1550.0" cy="100.0" r="3.0" />
		<circle cx="1680.0" cy="60.0" r="3.0" />
		<circle cx="1600.0" cy="80.0" r="3.0" />
		<circle cx="1570.0" cy="100.0" r="3.0" />
		<circle cx="1600.0" cy="100.0" r="3.0" />
		<circle cx="1630.0" cy="100.0" r="3.0" />
		<circle cx="1680.0" cy="80.0" r="3.0" />
		<circle cx="1650.0" cy="100.0" r="3.0" />
		<circle cx="1680.0" cy="100.0" r="3.0" />
		<circle cx="1710.0" cy="100.0" r="3.0" />
		<circle cx="1760.0" cy="80.0" r="3.0" />
		<circle cx="1730.0" cy="100.0" r="3.0" />
		<circle cx="1760.0" cy="100.0" r="3.0" />
		<circle cx="1790.0" cy="100.0" r="3.0" />
		<circle cx="2160.0" cy="40.0" r="3.0" />
		<circle cx="1920.0" cy="60.0" r="3.0" />
		<circle cx="1840.0" cy="80.0" r="3.0" />
		<circle cx="1810.0" cy="100.0" r="3.0" />
		<circle cx="1840.0" cy="100.0" r="3.0" />
		<circle cx="1870.0" cy="100.0" r="3.0" />
		<circle cx="1920.0" cy="80.0" r="3.0" />
		<circle cx="1890.0" cy="100.0" r="3.0" />
		<circle cx="1920.0" cy="100.0" r="3.0" />
		<circle cx="1950.0" cy="100.0" r="3.0" />
		<circle cx="2000.0" cy="80.0" r="3.0" />
		<circle cx="1970.0" cy="100.0" r="3.0" />
		<circle cx="2000.0" cy="100.0" r="3.0" />
		<circle cx="2030.0" cy="100.0" r="3.0" />
		<circle cx="2160.0" cy="60.0" r="3.0" />
		<circle cx="2080.0" cy="80.0" r="3.0" />
		<circle cx="2050.0" cy="100.0" r="3.0" />
		<circle cx="2080.0" cy="100.0" r="3.0" />
		<circle cx="2110.0" cy="100.0" r="3.0" />
		<circle cx="2160.0" cy="80.0" r="3.0" />
		<circle cx="2130.0" cy="100.0" r="3.0" />
		<circle cx="2160.0" cy="100.0" r="3.0" />
		<circle cx="2190.0" cy="100.0" r="3.0" />
		<circle cx="2240.0" cy="80.0" r="3.0" />
		<circle cx="2210.0" cy="100.0" r="3.0" />
		<circle cx="2240.0" cy="100.0" r="3.0" />
		<circle cx="2270.0" cy="100.0" r="3.0" />
		<circle cx="2400.0" cy="60.0" r="3.0" />
		<circle cx="2320.0" cy="80.0" r="3.0" />
		<circle cx="2290.0" cy="100.0" r="3.0" />
		<circle cx="2320.0" cy="100.0" r="3.0" />
		<circle cx="2350.0" cy="100.0" r="3.0" />
		<circle cx="2400.0" cy="80.0" r="3.0" />
		<circle cx="2370.0" cy="100.0" r="3.0" />
		<circle cx="2400.0" cy="100.0" r="3.0" />
		<circle cx="2430.0" cy="100.0" r="3.0" />
		<circle cx="2480.0" cy="80.0" r="3.0" />
		<circle cx="2450.0" cy="100.0" r="3.0" />
		<circle cx="2480.0" cy="100.0" r="3.0" />
		<circle cx="2510.0" cy="100.0" r="3.0" />
		<circle cx="2880.0" cy="40.0" r="3.0" />
		<circle cx="2640.0" cy="60.0" r="3.0" />
		<circle cx="2560.0" cy="80.0" r="3.0" />
		<circle cx="2530.0" cy="100.0" r="3.0" />
		<circle cx="2560.0" cy="100.0" r="3.0" />
		<circle cx="2590.0" cy="100.0" r="3.0" />
		<circle cx="2640.0" cy="80.0" r="3.0" />
		<circle cx="2610.0" cy="100.0" r="3.0" />
		<circle cx="2640.0" cy="100.0" r="3.0" />
		<circle cx="2670.0" cy="100.0" r="3.0" />
		<circle cx="2720.0" cy="80.0" r="3.0" />
		<circle cx="2690.0" cy="100.0" r="3.0" />
		<circle cx="2720.0" cy="100.0" r="3.0" />
		<circle cx="2750.0" cy="100.0" r="3.0" />
		<circle cx="2880.0" cy="60.0" r="3.0" />
		<circle cx="2800.0" cy="80.0" r="3.0" />
		<circle cx="2770.0" cy="100.0" r="3.0" />
		<circle cx="2800.0" cy="100.0" r="3.0" />
		<circle cx="2830.0" cy="100.0" r="3.0" />
		<circle cx="2880.0" cy="80.0" r="3.0" />
		<circle cx="2850.0" cy="100.0" r="3.0" />
		<circle cx="2880.0" cy="100.0" r="3.0" />
		<circle cx="2910.0" cy="100.0" r="3.0" />
		<circle cx="2960.0" cy="80.0" r="3.0" />
		<circle cx="2930.0" cy="100.0" r="3.0" />
		<circle cx="2960.0" cy="100.0" r="3.0" />
		<circle cx="2990.0" cy="100.0" r="3.0" />
		<circle cx="3120.0" cy="60.0" r="3.0" />
		<circle cx="3040.0" cy="80.0" r="3.0" />
		<circle cx="3010.0" cy="100.0" r="3.0" />
		<circle cx="3040.0" cy="100.0" r="3.0" />
		<circle cx="3070.0" cy="100.0" r="3.0" />
		<circle cx="3120.0" cy="80.0" r="3.0" />
		<circle cx="3090.0" cy="100.0" r="3.0" />
		<circle cx="3120.0" cy="100.0" r="3.0" />
		<circle cx="3150.0" cy="100.0" r="3.0" />
		<circle cx="3200.0" cy="80.0" r="3.0" />
		<circle cx="3170.0" cy="100.0" r="3.0" />
		<circle cx="3200.0" cy="100.0" r="3.0" />
		<circle cx="3230.0" cy="100.0" r="3.0" />
	</g>
</svg>